<svg width="1269" height="231" viewBox="0 0 1269 231" fill="none" xmlns="http://www.w3.org/2000/svg">
<path d="M15.1887 94.9576C19.6087 91.9527 21.3573 85.5581 19.0071 80.993C17.8967 78.8388 15.976 77.4122 13.7284 77.0905C11.4596 76.7655 9.12265 77.5376 7.15076 79.2687C6.7258 79.6468 6.3424 80.0731 5.95899 80.4994C5.80094 80.6807 5.63705 80.8588 5.47315 81.037L4.28523 83.0515L4.17573 83.47C2.90035 86.7223 2.98669 89.7882 4.42903 92.5973C5.09232 93.8814 6.06647 94.8924 7.25154 95.5496C7.82948 95.8701 8.46086 96.1109 9.13184 96.2561C11.1623 96.7011 13.3198 96.2414 15.1946 94.9608L15.1887 94.9576ZM10.4123 83.0782C11.1027 82.5195 11.886 82.2814 12.6235 82.4045C12.8776 82.4446 13.1156 82.5261 13.3374 82.6491C13.7577 82.8822 14.107 83.2524 14.3596 83.7372C15.1635 85.2591 15.055 87.351 14.1066 88.9351L14.0992 88.9479C13.5096 89.9744 12.787 90.6161 11.8962 90.9207C10.7108 91.3226 9.59779 90.8483 8.93874 89.6506C7.85291 87.6949 8.5584 84.5638 10.4123 83.0782Z" fill="#283618" fill-opacity="0.7"/>
<path d="M1250.72 102.894C1251.28 103.502 1251.93 104.007 1252.66 104.408C1254.13 105.228 1255.9 105.602 1257.75 105.45C1261.46 105.162 1264.3 103.299 1266.67 99.5896L1266.72 99.4942L1266.76 99.3888C1266.81 99.2137 1266.88 99.0088 1266.96 98.786C1267.19 98.1263 1267.48 97.31 1267.63 96.4355C1268.04 94.0454 1267.45 91.7215 1265.97 89.8946C1264.49 88.0711 1262.33 86.999 1259.9 86.8635C1254.65 86.5828 1249.65 90.533 1248.75 95.6649C1248.28 98.398 1249 101.028 1250.72 102.888L1250.72 102.894ZM1262.12 96.9725C1262.07 97.0958 1262.03 97.2105 1262 97.316C1260.56 99.4283 1259.03 100.373 1257.05 100.39C1255.97 100.391 1255.09 100.053 1254.51 99.4072C1253.92 98.7394 1253.67 97.7755 1253.81 96.6831C1254.14 94.1181 1256.93 91.8393 1259.53 91.9955C1260.09 92.0311 1260.61 92.1746 1261.05 92.4188C1261.39 92.6095 1261.69 92.8624 1261.93 93.1675C1262.47 93.851 1262.67 94.7483 1262.49 95.6951C1262.41 96.1443 1262.25 96.5899 1262.11 96.9844L1262.12 96.9725Z" fill="#283618" fill-opacity="0.7"/>
<path d="M1268.41 111.22C1267.67 108.712 1265.74 106.979 1263.1 106.462C1258.87 105.63 1254.04 108.252 1251.63 112.701C1249.42 116.772 1250.37 121.41 1253.84 123.473L1253.91 123.51L1253.99 123.535C1254.19 123.597 1254.4 123.668 1254.6 123.739C1255.09 123.907 1255.59 124.08 1256.13 124.176C1260.05 124.858 1264.25 122.878 1266.84 119.128C1268.58 116.61 1269.16 113.724 1268.41 111.22ZM1263.12 115.922C1262 117.926 1259.57 119.217 1257.58 118.865C1256.63 118.698 1255.96 118.155 1255.68 117.345C1255.4 116.528 1255.56 115.51 1256.15 114.561C1257.4 112.496 1259.88 111.301 1261.81 111.835C1262.03 111.9 1262.24 111.981 1262.44 112.088C1262.96 112.377 1263.33 112.824 1263.51 113.378C1263.74 114.137 1263.61 115.045 1263.12 115.922Z" fill="#283618" fill-opacity="0.7"/>
<path d="M492.65 81.3959C497.07 78.391 498.818 71.9964 496.468 67.4313C495.358 65.2771 493.437 63.8505 491.189 63.5288C488.921 63.2038 486.584 63.9759 484.612 65.707C484.187 66.0851 483.803 66.5114 483.42 66.9376C483.262 67.119 483.098 67.2971 482.934 67.4753L481.746 69.4898L481.637 69.9083C480.361 73.1606 480.448 76.2265 481.89 79.0356C482.553 80.3197 483.527 81.3307 484.712 81.9879C485.29 82.3084 485.922 82.5492 486.593 82.6943C488.623 83.1394 490.781 82.6797 492.656 81.3991L492.65 81.3959ZM487.873 69.5165C488.564 68.9578 489.347 68.7197 490.084 68.8428C490.339 68.8829 490.577 68.9644 490.798 69.0874C491.219 69.3205 491.568 69.6907 491.821 70.1755C492.624 71.6973 492.516 73.7893 491.568 75.3734L491.56 75.3862C490.971 76.4127 490.248 77.0544 489.357 77.359C488.172 77.7609 487.059 77.2866 486.4 76.0889C485.314 74.1332 486.019 71.0021 487.873 69.5165Z" fill="#283618" fill-opacity="0.7"/>
<path d="M515.277 94.2774C515.078 89.4029 512.92 85.5565 509.036 83.1475C504.361 80.2755 499.347 80.3257 494.069 83.3232C491.641 84.7005 489.235 86.1309 486.832 87.555L483.631 89.4497C481.901 90.4656 480.503 91.8378 479.348 93.6412L479.294 93.7349L479.252 93.8347C479.149 94.1312 479.034 94.4215 478.919 94.7118C478.657 95.389 478.386 96.0944 478.21 96.828C477.554 99.6406 478.001 102.398 479.461 104.598C480.928 106.811 483.23 108.153 485.92 108.378C488.283 108.578 490.268 109.086 491.989 109.925C494.181 111.017 496.094 112.687 497.844 115.081C498.516 115.996 499.348 116.737 500.341 117.288C500.95 117.626 501.618 117.889 502.345 118.087C505.327 118.893 508.543 118.125 511.17 115.987C513.759 113.876 515.279 110.802 515.349 107.558C515.458 102.459 515.434 98.2401 515.277 94.2774ZM508.429 111.924C507.245 112.962 505.717 113.382 504.233 113.077C503.185 112.867 502.31 112.241 501.542 111.182C499.852 108.838 497.762 106.971 495.313 105.613C494.71 105.279 494.082 104.972 493.433 104.702C491.494 103.882 489.389 103.389 486.998 103.199C484.525 102.996 482.973 101.321 482.931 98.8289C482.892 96.7586 483.777 95.1672 485.538 94.0952C489.531 91.6768 493.14 89.5141 496.866 87.4827C499.738 85.9155 502.732 85.8972 505.759 87.4277C508.761 89.2486 510.306 92.0639 510.344 95.8047C510.383 99.7016 510.395 103.592 510.391 107.499C510.389 109.225 509.674 110.845 508.441 111.93L508.429 111.924Z" fill="#283618" fill-opacity="0.7"/>
<path d="M502.721 79.7053C502.884 79.8126 503.05 79.9135 503.215 80.0049C505.277 81.1482 507.863 81.2348 510.409 80.2311C515.774 78.1127 519.591 71.5589 518.748 65.9214C518.002 60.9482 514.199 58.144 509.489 59.1086C506.187 59.7861 503.363 61.8987 501.323 65.2167L501.304 65.2488C499.855 67.7846 499.179 70.2402 499.242 72.7502C499.311 75.7464 500.581 78.2812 502.726 79.7084L502.721 79.7053ZM513.783 67.838C513.844 70.8214 512.199 73.6467 509.584 75.0443C508.245 75.7594 507.054 75.7856 505.827 75.1309C504.348 74.2257 504.201 72.4999 504.337 71.2195C504.635 68.3929 506.021 66.2542 508.452 64.8646C509.701 64.1503 511.026 64.0718 512.075 64.6449L512.081 64.648C513.137 65.2338 513.756 66.3991 513.788 67.8412L513.783 67.838Z" fill="#283618" fill-opacity="0.7"/>
<path d="M517.116 89.336C517.674 89.9441 518.331 90.4498 519.055 90.8515C520.534 91.6718 522.301 92.0466 524.155 91.8959C527.861 91.6098 530.698 89.7487 533.066 86.0411L533.121 85.9457L533.157 85.8403C533.21 85.6653 533.28 85.4605 533.36 85.2378C533.588 84.5782 533.873 83.7622 534.025 82.8879C534.435 80.4983 533.843 78.1743 532.362 76.3469C530.886 74.5228 528.724 73.4497 526.295 73.3128C521.037 73.0293 516.04 76.9763 515.146 82.1071C514.675 84.8396 515.393 87.4696 517.119 89.33L517.116 89.336ZM528.513 83.4218C528.466 83.5451 528.432 83.6598 528.395 83.7652C526.96 85.8764 525.43 86.82 523.447 86.836C522.372 86.8369 521.492 86.4982 520.908 85.8521C520.312 85.184 520.062 84.2201 520.204 83.128C520.538 80.5634 523.319 78.2865 525.927 78.4441C526.488 78.4799 527.002 78.6237 527.443 78.8681C527.787 79.0589 528.087 79.312 528.326 79.6172C528.865 80.3009 529.066 81.1982 528.888 82.1448C528.805 82.5939 528.645 83.0393 528.506 83.4337L528.513 83.4218Z" fill="#283618" fill-opacity="0.7"/>
<path d="M534.803 97.6723C534.063 95.1647 532.13 93.4305 529.49 92.9123C525.257 92.0775 520.433 94.6971 518.021 99.1442C515.811 103.213 516.766 107.852 520.241 109.916L520.309 109.954L520.385 109.979C520.589 110.04 520.795 110.112 521.001 110.183C521.49 110.351 521.989 110.525 522.534 110.62C526.449 111.304 530.649 109.327 533.236 105.579C534.975 103.062 535.553 100.177 534.803 97.6723ZM529.512 102.371C528.399 104.375 525.965 105.664 523.98 105.311C523.027 105.143 522.357 104.6 522.074 103.79C521.794 102.973 521.959 101.955 522.541 101.006C523.794 98.9419 526.278 97.7491 528.203 98.284C528.428 98.3487 528.636 98.4297 528.83 98.5369C529.353 98.8268 529.725 99.274 529.902 99.8275C530.14 100.587 530.008 101.494 529.512 102.371Z" fill="#283618" fill-opacity="0.7"/>
<path d="M385.167 172.951C389.587 169.946 391.336 163.551 388.985 158.986C387.875 156.832 385.954 155.405 383.707 155.084C381.438 154.759 379.101 155.531 377.129 157.262C376.704 157.64 376.321 158.066 375.937 158.492C375.779 158.674 375.615 158.852 375.452 159.03L374.264 161.045L374.154 161.463C372.879 164.715 372.965 167.781 374.407 170.59C375.071 171.874 376.045 172.885 377.23 173.543C377.808 173.863 378.439 174.104 379.11 174.249C381.141 174.694 383.298 174.234 385.173 172.954L385.167 172.951ZM380.391 161.071C381.081 160.513 381.864 160.274 382.602 160.398C382.856 160.438 383.094 160.519 383.316 160.642C383.736 160.875 384.085 161.245 384.338 161.73C385.142 163.252 385.033 165.344 384.085 166.928L384.078 166.941C383.488 167.967 382.765 168.609 381.875 168.914C380.689 169.316 379.576 168.841 378.917 167.644C377.831 165.688 378.537 162.557 380.391 161.071Z" fill="#283618" fill-opacity="0.7"/>
<path d="M407.794 185.832C407.595 180.958 405.437 177.111 401.553 174.702C396.879 171.83 391.865 171.88 386.587 174.878C384.159 176.255 381.752 177.686 379.349 179.11L376.148 181.004C374.419 182.02 373.021 183.393 371.866 185.196L371.812 185.29L371.769 185.389C371.666 185.686 371.551 185.976 371.437 186.267C371.174 186.944 370.903 187.649 370.727 188.383C370.071 191.195 370.519 193.953 371.978 196.153C373.445 198.366 375.747 199.708 378.438 199.933C380.801 200.132 382.786 200.641 384.506 201.479C386.699 202.572 388.612 204.242 390.361 206.635C391.033 207.551 391.865 208.292 392.858 208.843C393.468 209.181 394.135 209.444 394.862 209.642C397.844 210.448 401.06 209.68 403.688 207.541C406.276 205.43 407.797 202.357 407.867 199.112C407.976 194.013 407.951 189.795 407.794 185.832ZM400.947 203.479C399.763 204.517 398.234 204.937 396.75 204.632C395.703 204.422 394.827 203.796 394.059 202.737C392.37 200.393 390.28 198.526 387.831 197.168C387.227 196.833 386.6 196.527 385.951 196.257C384.011 195.437 381.906 194.944 379.515 194.754C377.043 194.551 375.49 192.876 375.448 190.384C375.41 188.313 376.294 186.722 378.056 185.65C382.049 183.232 385.657 181.069 389.383 179.037C392.255 177.47 395.249 177.452 398.276 178.982C401.278 180.803 402.823 183.619 402.862 187.359C402.9 191.256 402.912 195.147 402.908 199.053C402.906 200.78 402.191 202.4 400.958 203.485L400.947 203.479Z" fill="#283618" fill-opacity="0.7"/>
<path d="M395.238 171.26C395.401 171.367 395.568 171.468 395.732 171.56C397.794 172.703 400.38 172.79 402.926 171.786C408.291 169.667 412.108 163.114 411.265 157.476C410.52 152.503 406.716 149.699 402.006 150.663C398.704 151.341 395.881 153.453 393.84 156.771L393.822 156.804C392.373 159.339 391.696 161.795 391.759 164.305C391.828 167.301 393.098 169.836 395.244 171.263L395.238 171.26ZM406.3 159.393C406.361 162.376 404.716 165.201 402.101 166.599C400.762 167.314 399.571 167.34 398.345 166.686C396.865 165.78 396.718 164.055 396.855 162.774C397.153 159.948 398.538 157.809 400.969 156.419C402.218 155.705 403.544 155.627 404.592 156.2L404.598 156.203C405.654 156.789 406.273 157.954 406.306 159.396L406.3 159.393Z" fill="#283618" fill-opacity="0.7"/>
<path d="M409.633 180.891C410.191 181.499 410.848 182.005 411.572 182.406C413.052 183.227 414.818 183.601 416.672 183.451C420.379 183.165 423.215 181.304 425.583 177.596L425.638 177.501L425.675 177.395C425.728 177.22 425.798 177.015 425.878 176.793C426.105 176.133 426.391 175.317 426.543 174.443C426.952 172.053 426.361 169.729 424.879 167.902C423.403 166.078 421.241 165.004 418.813 164.868C413.554 164.584 408.557 168.531 407.664 173.662C407.193 176.394 407.911 179.024 409.636 180.885L409.633 180.891ZM421.03 174.977C420.983 175.1 420.949 175.215 420.913 175.32C419.477 177.431 417.948 178.375 415.965 178.391C414.889 178.392 414.009 178.053 413.425 177.407C412.83 176.739 412.579 175.775 412.721 174.683C413.056 172.118 415.836 169.841 418.444 169.999C419.005 170.035 419.519 170.178 419.96 170.423C420.304 170.614 420.605 170.867 420.843 171.172C421.382 171.856 421.583 172.753 421.405 173.7C421.323 174.149 421.162 174.594 421.023 174.988L421.03 174.977Z" fill="#283618" fill-opacity="0.7"/>
<path d="M427.321 189.227C426.581 186.719 424.647 184.985 422.008 184.467C417.774 183.632 412.951 186.252 410.539 190.699C408.329 194.768 409.284 199.406 412.758 201.471L412.826 201.509L412.902 201.533C413.106 201.595 413.313 201.666 413.519 201.738C414.007 201.905 414.507 202.079 415.051 202.175C418.966 202.859 423.166 200.882 425.754 197.134C427.492 194.617 428.07 191.731 427.321 189.227ZM422.03 193.926C420.916 195.93 418.482 197.219 416.497 196.866C415.544 196.698 414.875 196.155 414.591 195.344C414.311 194.527 414.476 193.51 415.059 192.561C416.312 190.497 418.795 189.304 420.721 189.839C420.946 189.903 421.154 189.985 421.347 190.092C421.87 190.382 422.242 190.829 422.419 191.382C422.657 192.142 422.526 193.049 422.03 193.926Z" fill="#283618" fill-opacity="0.7"/>
<path d="M627.618 176.802C632.038 173.797 633.787 167.403 631.437 162.838C630.326 160.684 628.406 159.257 626.158 158.935C623.889 158.61 621.552 159.382 619.58 161.113C619.155 161.491 618.772 161.918 618.389 162.344C618.23 162.525 618.067 162.704 617.903 162.882L616.715 164.896L616.605 165.315C615.33 168.567 615.416 171.633 616.859 174.442C617.522 175.726 618.496 176.737 619.681 177.394C620.259 177.715 620.89 177.956 621.561 178.101C623.592 178.546 625.749 178.086 627.624 176.806L627.618 176.802ZM622.842 164.923C623.532 164.364 624.316 164.126 625.053 164.249C625.307 164.289 625.545 164.371 625.767 164.494C626.187 164.727 626.536 165.097 626.789 165.582C627.593 167.104 627.484 169.196 626.536 170.78L626.529 170.793C625.939 171.819 625.217 172.461 624.326 172.765C623.14 173.167 622.027 172.693 621.368 171.495C620.282 169.54 620.988 166.408 622.842 164.923Z" fill="#283618" fill-opacity="0.7"/>
<path d="M650.245 189.684C650.047 184.809 647.888 180.963 644.004 178.554C639.33 175.682 634.316 175.732 629.038 178.73C626.61 180.107 624.203 181.537 621.801 182.961L618.599 184.856C616.87 185.872 615.472 187.244 614.317 189.048L614.263 189.141L614.221 189.241C614.117 189.538 614.003 189.828 613.888 190.118C613.625 190.795 613.354 191.501 613.178 192.234C612.523 195.047 612.97 197.805 614.429 200.005C615.897 202.217 618.198 203.56 620.889 203.784C623.252 203.984 625.237 204.492 626.957 205.331C629.15 206.423 631.063 208.093 632.813 210.487C633.485 211.403 634.316 212.144 635.31 212.695C635.919 213.033 636.586 213.296 637.314 213.493C640.295 214.299 643.511 213.532 646.139 211.393C648.728 209.282 650.248 206.208 650.318 202.964C650.427 197.865 650.402 193.646 650.245 189.684ZM643.398 207.33C642.214 208.369 640.685 208.789 639.201 208.484C638.154 208.273 637.278 207.648 636.51 206.588C634.821 204.244 632.731 202.378 630.282 201.02C629.678 200.685 629.051 200.378 628.402 200.109C626.463 199.288 624.357 198.796 621.967 198.605C619.494 198.403 617.941 196.727 617.899 194.235C617.861 192.165 618.745 190.574 620.507 189.502C624.5 187.083 628.108 184.921 631.835 182.889C634.706 181.322 637.701 181.304 640.728 182.834C643.729 184.655 645.274 187.47 645.313 191.211C645.351 195.108 645.364 198.999 645.359 202.905C645.357 204.632 644.643 206.252 643.409 207.337L643.398 207.33Z" fill="#283618" fill-opacity="0.7"/>
<path d="M637.689 175.112C637.852 175.219 638.019 175.32 638.184 175.411C640.245 176.555 642.831 176.641 645.377 175.638C650.743 173.519 654.559 166.965 653.716 161.328C652.971 156.355 649.167 153.55 644.457 154.515C641.155 155.193 638.332 157.305 636.291 160.623L636.273 160.655C634.824 163.191 634.147 165.647 634.211 168.157C634.28 171.153 635.549 173.688 637.695 175.115L637.689 175.112ZM648.751 163.244C648.813 166.228 647.167 169.053 644.552 170.451C643.213 171.166 642.022 171.192 640.796 170.537C639.316 169.632 639.169 167.906 639.306 166.626C639.604 163.799 640.99 161.661 643.42 160.271C644.669 159.557 645.995 159.478 647.043 160.051L647.049 160.054C648.105 160.64 648.724 161.806 648.757 163.248L648.751 163.244Z" fill="#283618" fill-opacity="0.7"/>
<path d="M652.084 184.742C652.642 185.351 653.299 185.856 654.024 186.258C655.503 187.078 657.27 187.453 659.123 187.302C662.83 187.016 665.666 185.155 668.035 181.448L668.089 181.352L668.126 181.247C668.179 181.072 668.249 180.867 668.329 180.644C668.557 179.985 668.842 179.169 668.994 178.294C669.403 175.905 668.812 173.581 667.33 171.753C665.854 169.929 663.693 168.856 661.264 168.719C656.006 168.436 651.008 172.383 650.115 177.513C649.644 180.246 650.362 182.876 652.088 184.736L652.084 184.742ZM663.481 178.828C663.434 178.951 663.4 179.066 663.364 179.172C661.928 181.283 660.399 182.226 658.416 182.242C657.341 182.243 656.46 181.905 655.876 181.259C655.281 180.59 655.031 179.627 655.172 178.534C655.507 175.97 658.288 173.693 660.896 173.85C661.456 173.886 661.971 174.03 662.411 174.275C662.755 174.465 663.056 174.718 663.294 175.024C663.833 175.707 664.034 176.605 663.857 177.551C663.774 178 663.613 178.446 663.474 178.84L663.481 178.828Z" fill="#283618" fill-opacity="0.7"/>
<path d="M669.772 193.079C669.032 190.571 667.098 188.837 664.459 188.319C660.226 187.484 655.402 190.104 652.99 194.551C650.78 198.62 651.735 203.258 655.209 205.322L655.278 205.36L655.353 205.385C655.558 205.447 655.764 205.518 655.97 205.59C656.458 205.757 656.958 205.931 657.502 206.027C661.418 206.711 665.618 204.734 668.205 200.986C669.943 198.468 670.522 195.583 669.772 193.079ZM664.481 197.777C663.367 199.781 660.934 201.07 658.948 200.717C657.996 200.55 657.326 200.007 657.042 199.196C656.762 198.379 656.927 197.362 657.51 196.413C658.763 194.348 661.246 193.156 663.172 193.69C663.397 193.755 663.605 193.836 663.798 193.943C664.321 194.233 664.694 194.68 664.87 195.234C665.108 195.993 664.977 196.9 664.481 197.777Z" fill="#283618" fill-opacity="0.7"/>
<path d="M229.889 80.6026C234.309 77.5978 236.057 71.2032 233.707 66.638C232.597 64.4838 230.676 63.0572 228.428 62.7355C226.159 62.4105 223.823 63.1826 221.851 64.9138C221.426 65.2918 221.042 65.7181 220.659 66.1444C220.501 66.3257 220.337 66.5039 220.173 66.682L218.985 68.6966L218.876 69.115C217.6 72.3673 217.687 75.4332 219.129 78.2423C219.792 79.5265 220.766 80.5374 221.951 81.1946C222.529 81.5151 223.161 81.756 223.832 81.9011C225.862 82.3461 228.02 81.8865 229.894 80.6059L229.889 80.6026ZM225.112 68.7233C225.803 68.1646 226.586 67.9264 227.323 68.0496C227.577 68.0896 227.815 68.1711 228.037 68.2941C228.458 68.5272 228.807 68.8974 229.059 69.3822C229.863 70.9041 229.755 72.996 228.806 74.5802L228.799 74.5929C228.209 75.6194 227.487 76.2611 226.596 76.5657C225.411 76.9677 224.298 76.4933 223.639 75.2956C222.553 73.34 223.258 70.2088 225.112 68.7233Z" fill="#283618" fill-opacity="0.7"/>
<path d="M252.516 93.4841C252.317 88.6096 250.159 84.7632 246.275 82.3542C241.6 79.4822 236.586 79.5324 231.308 82.53C228.88 83.9072 226.474 85.3376 224.071 86.7617L220.87 88.6564C219.14 89.6723 217.742 91.0445 216.587 92.848L216.533 92.9416L216.491 93.0415C216.388 93.338 216.273 93.6282 216.158 93.9185C215.896 94.5958 215.624 95.3011 215.449 96.0347C214.793 98.8473 215.24 101.605 216.7 103.805C218.167 106.018 220.469 107.36 223.159 107.585C225.522 107.784 227.507 108.293 229.228 109.131C231.42 110.224 233.333 111.894 235.083 114.287C235.755 115.203 236.587 115.944 237.58 116.495C238.189 116.833 238.857 117.096 239.584 117.294C242.566 118.1 245.782 117.332 248.409 115.193C250.998 113.082 252.518 110.009 252.588 106.764C252.697 101.665 252.672 97.4468 252.516 93.4841ZM245.668 111.131C244.484 112.169 242.956 112.589 241.472 112.284C240.424 112.074 239.549 111.448 238.781 110.389C237.091 108.045 235.001 106.178 232.552 104.82C231.949 104.485 231.321 104.178 230.672 103.909C228.733 103.089 226.628 102.596 224.237 102.406C221.764 102.203 220.212 100.527 220.17 98.0356C220.131 95.9654 221.016 94.3739 222.777 93.3019C226.77 90.8836 230.379 88.7208 234.105 86.6894C236.977 85.1222 239.971 85.1039 242.998 86.6344C245.999 88.4553 247.545 91.2706 247.583 95.0114C247.622 98.9084 247.634 102.799 247.63 106.705C247.628 108.432 246.913 110.052 245.68 111.137L245.668 111.131Z" fill="#283618" fill-opacity="0.7"/>
<path d="M239.96 78.912C240.123 79.0194 240.289 79.1203 240.454 79.2116C242.516 80.3549 245.102 80.4415 247.648 79.4378C253.013 77.3195 256.83 70.7657 255.987 65.1281C255.241 60.1549 251.438 57.3507 246.728 58.3153C243.425 58.9928 240.602 61.1054 238.562 64.4234L238.543 64.4556C237.094 66.9913 236.418 69.4469 236.481 71.957C236.55 74.9531 237.82 77.488 239.965 78.9152L239.96 78.912ZM251.022 67.0448C251.083 70.0281 249.438 72.8534 246.823 74.2511C245.483 74.9661 244.293 74.9923 243.066 74.3376C241.587 73.4324 241.44 71.7066 241.576 70.4262C241.874 67.5996 243.26 65.461 245.69 64.0713C246.939 63.357 248.265 63.2785 249.314 63.8516L249.319 63.8548C250.376 64.4406 250.995 65.6058 251.027 67.0479L251.022 67.0448Z" fill="#283618" fill-opacity="0.7"/>
<path d="M254.354 88.5427C254.913 89.1508 255.569 89.6565 256.294 90.0583C257.773 90.8785 259.54 91.2533 261.394 91.1026C265.1 90.8165 267.937 88.9555 270.305 85.2478L270.36 85.1525L270.396 85.0471C270.449 84.872 270.519 84.6672 270.599 84.4445C270.827 83.7849 271.112 82.969 271.264 82.0946C271.674 79.705 271.082 77.3811 269.6 75.5536C268.125 73.7295 265.963 72.6564 263.534 72.5196C258.276 72.236 253.278 76.183 252.385 81.3138C251.914 84.0464 252.632 86.6763 254.358 88.5368L254.354 88.5427ZM265.752 82.6285C265.705 82.7518 265.671 82.8665 265.634 82.9719C264.198 85.0831 262.669 86.0268 260.686 86.0427C259.611 86.0437 258.731 85.7049 258.147 85.0588C257.551 84.3908 257.301 83.4269 257.443 82.3347C257.777 79.7701 260.558 77.4932 263.166 77.6508C263.726 77.6866 264.241 77.8304 264.682 78.0748C265.026 78.2657 265.326 78.5187 265.565 78.8239C266.103 79.5076 266.304 80.4049 266.127 81.3515C266.044 81.8006 265.884 82.246 265.745 82.6404L265.752 82.6285Z" fill="#283618" fill-opacity="0.7"/>
<path d="M272.042 96.879C271.302 94.3714 269.369 92.6373 266.729 92.119C262.496 91.2842 257.672 93.9038 255.26 98.3509C253.05 102.42 254.005 107.058 257.48 109.123L257.548 109.161L257.624 109.185C257.828 109.247 258.034 109.318 258.24 109.39C258.729 109.557 259.228 109.731 259.773 109.827C263.688 110.511 267.888 108.534 270.475 104.786C272.213 102.269 272.792 99.3833 272.042 96.879ZM266.751 101.577C265.638 103.582 263.204 104.871 261.219 104.518C260.266 104.35 259.596 103.807 259.313 102.996C259.033 102.179 259.197 101.162 259.78 100.213C261.033 98.1487 263.517 96.9558 265.442 97.4907C265.667 97.5554 265.875 97.6365 266.069 97.7436C266.591 98.0335 266.964 98.4808 267.141 99.0343C267.379 99.7938 267.247 100.701 266.751 101.577Z" fill="#283618" fill-opacity="0.7"/>
<path d="M95.3356 193.707C99.7556 190.702 101.504 184.308 99.154 179.743C98.0436 177.588 96.1228 176.162 93.8753 175.84C91.6065 175.515 89.2695 176.287 87.2976 178.018C86.8727 178.396 86.4893 178.823 86.1059 179.249C85.9478 179.43 85.7839 179.608 85.62 179.787L84.4321 181.801L84.3226 182.22C83.0472 185.472 83.1336 188.538 84.5759 191.347C85.2392 192.631 86.2134 193.642 87.3984 194.299C87.9764 194.62 88.6077 194.861 89.2787 195.006C91.3092 195.451 93.4667 194.991 95.3415 193.71L95.3356 193.707ZM90.5592 181.828C91.2496 181.269 92.0329 181.031 92.7704 181.154C93.0245 181.194 93.2625 181.276 93.4843 181.399C93.9046 181.632 94.2539 182.002 94.5065 182.487C95.3104 184.009 95.2019 186.101 94.2535 187.685L94.2461 187.698C93.6565 188.724 92.9339 189.366 92.0431 189.67C90.8577 190.072 89.7447 189.598 89.0856 188.4C87.9998 186.445 88.7053 183.313 90.5592 181.828Z" fill="#283618" fill-opacity="0.7"/>
<path d="M117.963 206.589C117.764 201.714 115.606 197.868 111.722 195.459C107.047 192.587 102.033 192.637 96.7551 195.635C94.3272 197.012 91.9208 198.442 89.518 199.866L86.3167 201.761C84.5874 202.777 83.1891 204.149 82.0341 205.953L81.9804 206.046L81.9379 206.146C81.8345 206.443 81.7199 206.733 81.6053 207.023C81.3427 207.7 81.0715 208.406 80.8957 209.139C80.24 211.952 80.6872 214.71 82.1467 216.91C83.6139 219.122 85.9157 220.464 88.6064 220.689C90.9694 220.889 92.9543 221.397 94.6747 222.236C96.8672 223.328 98.7801 224.998 100.53 227.392C101.202 228.308 102.034 229.049 103.027 229.6C103.636 229.938 104.304 230.201 105.031 230.398C108.013 231.204 111.229 230.437 113.856 228.298C116.445 226.187 117.965 223.113 118.035 219.869C118.144 214.77 118.119 210.551 117.963 206.589ZM111.115 224.235C109.931 225.274 108.403 225.693 106.919 225.389C105.871 225.178 104.996 224.553 104.228 223.493C102.538 221.149 100.448 219.283 97.9993 217.925C97.3955 217.59 96.7682 217.283 96.1193 217.014C94.1799 216.193 92.0746 215.701 89.6839 215.51C87.2111 215.308 85.6587 213.632 85.6168 211.14C85.5783 209.07 86.4626 207.479 88.2242 206.406C92.2173 203.988 95.8256 201.825 99.5519 199.794C102.424 198.227 105.418 198.209 108.445 199.739C111.447 201.56 112.992 204.375 113.03 208.116C113.069 212.013 113.081 215.904 113.077 219.81C113.075 221.537 112.36 223.156 111.127 224.242L111.115 224.235Z" fill="#283618" fill-opacity="0.7"/>
<path d="M105.407 192.017C105.57 192.124 105.736 192.225 105.901 192.316C107.963 193.46 110.549 193.546 113.095 192.542C118.46 190.424 122.277 183.87 121.434 178.233C120.688 173.26 116.885 170.455 112.175 171.42C108.873 172.097 106.049 174.21 104.009 177.528L103.99 177.56C102.541 180.096 101.865 182.552 101.928 185.062C101.997 188.058 103.267 190.593 105.412 192.02L105.407 192.017ZM116.469 180.149C116.53 183.133 114.885 185.958 112.27 187.356C110.93 188.071 109.74 188.097 108.513 187.442C107.034 186.537 106.887 184.811 107.023 183.531C107.321 180.704 108.707 178.566 111.138 177.176C112.386 176.462 113.712 176.383 114.761 176.956L114.766 176.959C115.823 177.545 116.442 178.71 116.474 180.153L116.469 180.149Z" fill="#283618" fill-opacity="0.7"/>
<path d="M119.801 201.647C120.36 202.255 121.016 202.761 121.741 203.163C123.22 203.983 124.987 204.358 126.841 204.207C130.547 203.921 133.384 202.06 135.752 198.352L135.807 198.257L135.843 198.152C135.896 197.977 135.966 197.772 136.046 197.549C136.274 196.89 136.559 196.074 136.711 195.199C137.121 192.81 136.529 190.486 135.047 188.658C133.572 186.834 131.41 185.761 128.981 185.624C123.723 185.341 118.725 189.288 117.832 194.418C117.361 197.151 118.079 199.781 119.805 201.641L119.801 201.647ZM131.199 195.733C131.152 195.856 131.118 195.971 131.081 196.076C129.645 198.188 128.116 199.131 126.133 199.147C125.058 199.148 124.178 198.81 123.594 198.163C122.998 197.495 122.748 196.531 122.89 195.439C123.224 192.875 126.005 190.598 128.613 190.755C129.173 190.791 129.688 190.935 130.129 191.179C130.473 191.37 130.773 191.623 131.012 191.929C131.55 192.612 131.752 193.51 131.574 194.456C131.491 194.905 131.331 195.351 131.192 195.745L131.199 195.733Z" fill="#283618" fill-opacity="0.7"/>
<path d="M137.489 209.984C136.749 207.476 134.816 205.742 132.176 205.224C127.943 204.389 123.119 207.008 120.707 211.456C118.497 215.525 119.452 220.163 122.927 222.227L122.995 222.265L123.071 222.29C123.275 222.352 123.481 222.423 123.687 222.494C124.176 222.662 124.675 222.836 125.22 222.932C129.135 223.616 133.335 221.639 135.922 217.891C137.66 215.373 138.239 212.488 137.489 209.984ZM132.198 214.682C131.085 216.686 128.651 217.975 126.666 217.622C125.713 217.455 125.043 216.912 124.76 216.101C124.48 215.284 124.645 214.267 125.227 213.318C126.48 211.253 128.964 210.06 130.889 210.595C131.114 210.66 131.322 210.741 131.516 210.848C132.038 211.138 132.411 211.585 132.588 212.139C132.826 212.898 132.694 213.805 132.198 214.682Z" fill="#283618" fill-opacity="0.7"/>
<path d="M37.8159 107.839C37.6172 102.965 35.4591 99.1182 31.575 96.7092C26.9004 93.8372 21.8866 93.8874 16.6083 96.8849C14.1804 98.2622 11.774 99.6926 9.37124 101.117L6.16992 103.011C4.4406 104.027 3.0423 105.399 1.88738 107.203L1.83361 107.297L1.79113 107.396C1.68778 107.693 1.57314 107.983 1.4585 108.273C1.19597 108.951 0.924742 109.656 0.748911 110.39C0.0931875 113.202 0.540397 115.96 1.9999 118.16C3.46711 120.373 5.76896 121.715 8.45965 121.94C10.8227 122.139 12.8075 122.647 14.528 123.486C16.7204 124.579 18.6333 126.248 20.3832 128.642C21.0551 129.558 21.8869 130.299 22.8801 130.85C23.4895 131.188 24.1568 131.451 24.8841 131.649C27.866 132.455 31.082 131.687 33.7093 129.548C36.2983 127.437 37.8183 124.364 37.8886 121.119C37.9975 116.02 37.9727 111.802 37.8159 107.839ZM30.9685 125.486C29.7843 126.524 28.256 126.944 26.7718 126.639C25.7246 126.429 24.8488 125.803 24.0809 124.744C22.3915 122.4 20.3016 120.533 17.8526 119.175C17.2488 118.84 16.6214 118.533 15.9725 118.264C14.0331 117.444 11.9278 116.951 9.53711 116.761C7.06436 116.558 5.51193 114.882 5.47002 112.391C5.4315 110.32 6.31584 108.729 8.07742 107.657C12.0706 105.239 15.6788 103.076 19.4051 101.044C22.277 99.4772 25.2711 99.4589 28.2981 100.989C31.2998 102.81 32.8449 105.626 32.8836 109.366C32.922 113.263 32.9342 117.154 32.9301 121.06C32.9278 122.787 32.2132 124.407 30.9798 125.492L30.9685 125.486Z" fill="#283618" fill-opacity="0.7"/>
<path d="M25.2598 93.267C25.4228 93.3743 25.5895 93.4752 25.7542 93.5666C27.8158 94.7099 30.402 94.7964 32.9479 93.7928C38.3132 91.6744 42.1299 85.1206 41.2868 79.4831C40.5414 74.5099 36.738 71.7057 32.0279 72.6703C28.7258 73.3478 25.9024 75.4604 23.8618 78.7784L23.8433 78.8105C22.3943 81.3463 21.7178 83.8019 21.7812 86.3119C21.8501 89.3081 23.1199 91.8429 25.2655 93.2701L25.2598 93.267ZM36.322 81.3997C36.3831 84.3831 34.7379 87.2084 32.123 88.606C30.7837 89.3211 29.593 89.3473 28.3665 88.6926C26.887 87.7874 26.74 86.0616 26.8764 84.7812C27.1745 81.9546 28.5601 79.8159 30.9908 78.4263C32.2397 77.712 33.5653 77.6335 34.614 78.2066L34.6197 78.2097C35.6761 78.7955 36.2948 79.9608 36.3276 81.4029L36.322 81.3997Z" fill="#283618" fill-opacity="0.7"/>
<path d="M39.6547 102.898C40.2129 103.506 40.8697 104.011 41.5942 104.413C43.0733 105.233 44.8402 105.608 46.6939 105.458C50.4006 105.171 53.2368 103.31 55.6052 99.6028L55.66 99.5074L55.6967 99.402C55.7494 99.227 55.8193 99.0222 55.8995 98.7995C56.1271 98.1399 56.4127 97.3239 56.5647 96.4496C56.974 94.06 56.3824 91.736 54.9007 89.9086C53.4251 88.0845 51.2633 87.0114 48.8344 86.8745C43.5762 86.591 38.5787 90.538 37.6854 95.6688C37.2144 98.4013 37.9327 101.031 39.6581 102.892L39.6547 102.898ZM51.0519 96.9835C51.005 97.1068 50.9709 97.2215 50.9343 97.3269C49.4987 99.4381 47.9696 100.382 45.9863 100.398C44.9111 100.399 44.031 100.06 43.4469 99.4138C42.8515 98.7457 42.6012 97.7818 42.7429 96.6897C43.0777 94.1251 45.8582 91.8482 48.4662 92.0058C49.0267 92.0416 49.5411 92.1854 49.9819 92.4298C50.326 92.6206 50.6264 92.8737 50.8651 93.1789C51.4037 93.8626 51.6047 94.7599 51.4272 95.7065C51.3444 96.1556 51.184 96.601 51.0451 96.9954L51.0519 96.9835Z" fill="#283618" fill-opacity="0.7"/>
<path d="M57.3426 111.234C56.6026 108.726 54.669 106.992 52.0295 106.474C47.7962 105.639 42.9722 108.259 40.5603 112.706C38.3504 116.775 39.3053 121.413 42.7799 123.478L42.8481 123.515L42.9238 123.54C43.1281 123.602 43.3344 123.673 43.5406 123.745C44.0288 123.912 44.5283 124.086 45.0728 124.182C48.9881 124.866 53.1882 122.889 55.7756 119.141C57.5137 116.624 58.0921 113.738 57.3426 111.234ZM52.0515 115.932C50.9378 117.936 48.5041 119.226 46.519 118.873C45.5661 118.705 44.8966 118.162 44.6129 117.351C44.333 116.534 44.4978 115.517 45.0803 114.568C46.3334 112.504 48.8168 111.311 50.7424 111.846C50.9675 111.91 51.1757 111.991 51.3689 112.099C51.8917 112.389 52.2642 112.836 52.4408 113.389C52.6789 114.149 52.5475 115.056 52.0515 115.932Z" fill="#283618" fill-opacity="0.7"/>
<path d="M845.545 178.444C849.965 175.439 851.714 169.044 849.363 164.479C848.253 162.325 846.332 160.898 844.085 160.576C841.816 160.251 839.479 161.024 837.507 162.755C837.082 163.133 836.699 163.559 836.315 163.985C836.157 164.167 835.993 164.345 835.83 164.523L834.642 166.538L834.532 166.956C833.257 170.208 833.343 173.274 834.785 176.083C835.449 177.367 836.423 178.378 837.608 179.036C838.186 179.356 838.817 179.597 839.488 179.742C841.519 180.187 843.676 179.727 845.551 178.447L845.545 178.444ZM840.769 166.564C841.459 166.006 842.242 165.767 842.98 165.891C843.234 165.931 843.472 166.012 843.694 166.135C844.114 166.368 844.463 166.738 844.716 167.223C845.52 168.745 845.411 170.837 844.463 172.421L844.456 172.434C843.866 173.46 843.143 174.102 842.253 174.407C841.067 174.809 839.954 174.334 839.295 173.137C838.209 171.181 838.915 168.05 840.769 166.564Z" fill="#283618" fill-opacity="0.7"/>
<path d="M868.172 191.325C867.974 186.451 865.815 182.604 861.931 180.195C857.257 177.323 852.243 177.373 846.965 180.371C844.537 181.748 842.13 183.179 839.727 184.603L836.526 186.497C834.797 187.513 833.399 188.885 832.244 190.689L832.19 190.783L832.147 190.882C832.044 191.179 831.929 191.469 831.815 191.759C831.552 192.437 831.281 193.142 831.105 193.876C830.449 196.688 830.897 199.446 832.356 201.646C833.823 203.859 836.125 205.201 838.816 205.426C841.179 205.625 843.164 206.133 844.884 206.972C847.077 208.065 848.99 209.734 850.739 212.128C851.411 213.044 852.243 213.785 853.236 214.336C853.846 214.674 854.513 214.937 855.24 215.135C858.222 215.941 861.438 215.173 864.066 213.034C866.655 210.923 868.175 207.849 868.245 204.605C868.354 199.506 868.329 195.288 868.172 191.325ZM861.325 208.972C860.141 210.01 858.612 210.43 857.128 210.125C856.081 209.915 855.205 209.289 854.437 208.23C852.748 205.886 850.658 204.019 848.209 202.661C847.605 202.326 846.978 202.019 846.329 201.75C844.389 200.93 842.284 200.437 839.893 200.247C837.421 200.044 835.868 198.368 835.826 195.877C835.788 193.806 836.672 192.215 838.434 191.143C842.427 188.725 846.035 186.562 849.761 184.53C852.633 182.963 855.627 182.945 858.654 184.475C861.656 186.296 863.201 189.112 863.24 192.852C863.278 196.749 863.29 200.64 863.286 204.546C863.284 206.273 862.569 207.893 861.336 208.978L861.325 208.972Z" fill="#283618" fill-opacity="0.7"/>
<path d="M855.616 176.753C855.779 176.86 855.946 176.961 856.11 177.053C858.172 178.196 860.758 178.282 863.304 177.279C868.669 175.16 872.486 168.607 871.643 162.969C870.898 157.996 867.094 155.192 862.384 156.156C859.082 156.834 856.259 158.946 854.218 162.264L854.2 162.297C852.751 164.832 852.074 167.288 852.138 169.798C852.206 172.794 853.476 175.329 855.622 176.756L855.616 176.753ZM866.678 164.886C866.739 167.869 865.094 170.694 862.479 172.092C861.14 172.807 859.949 172.833 858.723 172.179C857.243 171.273 857.096 169.548 857.233 168.267C857.531 165.441 858.916 163.302 861.347 161.912C862.596 161.198 863.922 161.119 864.97 161.693L864.976 161.696C866.032 162.282 866.651 163.447 866.684 164.889L866.678 164.886Z" fill="#283618" fill-opacity="0.7"/>
<path d="M870.011 186.384C870.569 186.992 871.226 187.497 871.95 187.899C873.43 188.719 875.196 189.094 877.05 188.944C880.757 188.657 883.593 186.796 885.961 183.089L886.016 182.993L886.053 182.888C886.106 182.713 886.176 182.508 886.256 182.285C886.483 181.626 886.769 180.81 886.921 179.936C887.33 177.546 886.739 175.222 885.257 173.395C883.781 171.57 881.62 170.497 879.191 170.361C873.932 170.077 868.935 174.024 868.042 179.155C867.571 181.887 868.289 184.517 870.014 186.378L870.011 186.384ZM881.408 180.469C881.361 180.593 881.327 180.707 881.291 180.813C879.855 182.924 878.326 183.868 876.343 183.884C875.267 183.885 874.387 183.546 873.803 182.9C873.208 182.232 872.957 181.268 873.099 180.176C873.434 177.611 876.214 175.334 878.822 175.492C879.383 175.528 879.897 175.671 880.338 175.916C880.682 176.107 880.983 176.36 881.221 176.665C881.76 177.349 881.961 178.246 881.783 179.192C881.701 179.642 881.54 180.087 881.401 180.481L881.408 180.469Z" fill="#283618" fill-opacity="0.7"/>
<path d="M887.699 194.72C886.959 192.212 885.025 190.478 882.386 189.96C878.152 189.125 873.329 191.745 870.917 196.192C868.707 200.261 869.662 204.899 873.136 206.964L873.204 207.001L873.28 207.026C873.484 207.088 873.691 207.159 873.897 207.231C874.385 207.398 874.885 207.572 875.429 207.668C879.344 208.352 883.544 206.375 886.132 202.627C887.87 200.11 888.448 197.224 887.699 194.72ZM882.408 199.418C881.294 201.422 878.86 202.712 876.875 202.359C875.922 202.191 875.253 201.648 874.969 200.837C874.689 200.02 874.854 199.003 875.437 198.054C876.69 195.99 879.173 194.797 881.099 195.332C881.324 195.396 881.532 195.477 881.725 195.585C882.248 195.874 882.62 196.322 882.797 196.875C883.035 197.635 882.904 198.542 882.408 199.418Z" fill="#283618" fill-opacity="0.7"/>
<path d="M935.169 37.8337C939.59 34.8266 941.341 28.4307 938.993 23.8662C937.884 21.7123 935.964 20.2864 933.717 19.9658C931.449 19.6418 929.112 20.415 927.14 22.1472C926.715 22.5254 926.331 22.9519 925.948 23.3784C925.789 23.5599 925.625 23.7381 925.462 23.9163L924.273 25.9316L924.163 26.3501C922.887 29.6033 922.971 32.6694 924.412 35.478C925.075 36.762 926.048 37.7726 927.233 38.4293C927.811 38.7496 928.442 38.9901 929.112 39.135C931.142 39.5791 933.3 39.1185 935.175 37.8369L935.169 37.8337ZM930.399 25.9555C931.089 25.3964 931.873 25.1579 932.61 25.2807C932.864 25.3207 933.102 25.4021 933.324 25.525C933.744 25.7579 934.093 26.128 934.345 26.6127C935.148 28.1343 935.039 30.2265 934.09 31.8112L934.082 31.824C933.492 32.8508 932.77 33.4929 931.879 33.798C930.693 34.2004 929.581 33.7266 928.922 32.529C927.838 30.5737 928.545 27.442 930.399 25.9555Z" fill="#283618" fill-opacity="0.7"/>
<path d="M957.8 50.7086C957.604 45.8334 955.448 41.9874 951.565 39.5797C946.893 36.7093 941.879 36.7618 936.6 39.7623C934.172 41.1408 931.765 42.5725 929.362 43.998L926.16 45.8944C924.43 46.9112 923.031 48.2843 921.876 50.0886L921.822 50.1822L921.779 50.2821C921.676 50.5787 921.561 50.8691 921.446 51.1595C921.184 51.837 920.912 52.5426 920.736 53.2764C920.079 56.0897 920.525 58.8477 921.983 61.0474C923.449 63.2596 925.75 64.6011 928.44 64.8248C930.803 65.0233 932.788 65.5307 934.507 66.369C936.699 67.4605 938.611 69.1297 940.36 71.5232C941.031 72.4387 941.862 73.1795 942.855 73.7299C943.464 74.0676 944.132 74.3305 944.859 74.5278C947.84 75.3326 951.056 74.5636 953.684 72.4231C956.274 70.3108 957.795 67.2357 957.867 63.9909C957.978 58.8911 957.956 54.6719 957.8 50.7086ZM950.945 68.3612C949.761 69.4003 948.233 69.8207 946.749 69.5167C945.702 69.3067 944.826 68.6814 944.059 67.6221C942.371 65.2786 940.282 63.4126 937.834 62.0554C937.23 61.7208 936.603 61.4143 935.954 61.1452C934.016 60.3255 931.911 59.8336 929.52 59.6445C927.048 59.4428 925.496 57.7677 925.456 55.2755C925.418 53.2049 926.303 51.6128 928.065 50.5398C932.059 48.1193 935.668 45.9545 939.395 43.9211C942.267 42.3523 945.261 42.3327 948.287 43.8621C951.287 45.6819 952.831 48.4969 952.868 52.2384C952.905 56.1359 952.915 60.0272 952.909 63.9342C952.906 65.6612 952.191 67.2815 950.957 68.3674L950.945 68.3612Z" fill="#283618" fill-opacity="0.7"/>
<path d="M945.241 36.1475C945.404 36.2548 945.571 36.3556 945.735 36.4469C947.796 37.5893 950.381 37.6747 952.927 36.6699C958.293 34.5489 962.112 27.993 961.271 22.3554C960.528 17.3822 956.727 14.5796 952.017 15.5464C948.716 16.2254 945.892 18.3394 943.85 21.6586L943.832 21.6907C942.382 24.2273 941.704 26.6834 941.766 29.1936C941.834 32.1898 943.102 34.7243 945.247 36.1506L945.241 36.1475ZM956.307 24.2744C956.366 27.258 954.72 30.0842 952.105 31.4831C950.766 32.1988 949.575 32.2256 948.349 31.5714C946.87 30.6668 946.724 28.941 946.861 27.6604C947.161 24.8335 948.547 22.6941 950.978 21.3032C952.227 20.5883 953.552 20.5092 954.6 21.0819L954.606 21.085C955.662 21.6704 956.28 22.8354 956.312 24.2776L956.307 24.2744Z" fill="#283618" fill-opacity="0.7"/>
<path d="M959.637 45.7787C960.195 46.3867 960.852 46.8921 961.576 47.2936C963.054 48.1133 964.821 48.4873 966.674 48.3357C970.38 48.0479 973.217 46.1854 975.587 42.4763L975.642 42.3809L975.678 42.2755C975.731 42.1004 975.801 41.8955 975.881 41.6728C976.109 41.013 976.395 40.1968 976.548 39.3223C976.958 36.9323 976.368 34.6084 974.887 32.7814C973.412 30.9578 971.251 29.8855 968.823 29.7498C963.566 29.4686 958.567 33.4183 957.672 38.55C957.199 41.283 957.916 43.9129 959.641 45.7728L959.637 45.7787ZM971.035 39.8588C970.988 39.9821 970.954 40.0968 970.918 40.2022C969.481 42.3144 967.952 43.2588 965.969 43.2756C964.894 43.2771 964.014 42.9387 963.43 42.2928C962.836 41.6249 962.586 40.661 962.728 39.5687C963.064 37.0037 965.845 34.7253 968.453 34.8817C969.013 34.9173 969.527 35.0609 969.968 35.3051C970.312 35.4958 970.612 35.7487 970.85 36.0539C971.389 36.7374 971.589 37.6347 971.411 38.5815C971.328 39.0307 971.168 39.4762 971.029 39.8707L971.035 39.8588Z" fill="#283618" fill-opacity="0.7"/>
<path d="M977.328 54.1067C976.589 51.5991 974.656 49.8658 972.018 49.3487C967.785 48.5157 962.961 51.1377 960.547 55.5863C958.336 59.6568 959.289 64.2949 962.762 66.3579L962.83 66.3957L962.906 66.4205C963.11 66.4821 963.316 66.5534 963.522 66.6247C964.01 66.7921 964.51 66.9658 965.054 67.0612C968.968 67.7437 973.168 65.7645 975.757 62.0149C977.496 59.4967 978.076 56.6108 977.328 54.1067ZM972.035 58.8079C970.921 60.8126 968.487 62.1029 966.502 61.7507C965.55 61.5838 964.88 61.0408 964.597 60.2303C964.318 59.4133 964.483 58.3957 965.066 57.4463C966.32 55.3814 968.803 54.1873 970.728 54.7214C970.953 54.786 971.161 54.867 971.354 54.974C971.877 55.2637 972.249 55.7108 972.426 56.2643C972.663 57.0237 972.531 57.9309 972.035 58.8079Z" fill="#283618" fill-opacity="0.7"/>
<path d="M1064.75 155.796C1069.17 152.789 1070.92 146.393 1068.57 141.828C1067.46 139.675 1065.54 138.249 1063.3 137.928C1061.03 137.605 1058.69 138.378 1056.72 140.11C1056.29 140.489 1055.91 140.915 1055.53 141.342C1055.37 141.523 1055.2 141.702 1055.04 141.88L1053.85 143.895L1053.74 144.314C1052.47 147.567 1052.55 150.633 1053.99 153.442C1054.65 154.726 1055.63 155.736 1056.81 156.393C1057.39 156.713 1058.02 156.954 1058.69 157.098C1060.72 157.542 1062.88 157.081 1064.75 155.8L1064.75 155.796ZM1059.98 143.919C1060.67 143.359 1061.45 143.121 1062.19 143.244C1062.44 143.283 1062.68 143.365 1062.9 143.488C1063.32 143.721 1063.67 144.091 1063.92 144.575C1064.73 146.097 1064.62 148.189 1063.67 149.774L1063.66 149.787C1063.07 150.814 1062.35 151.456 1061.46 151.761C1060.27 152.164 1059.16 151.69 1058.5 150.492C1057.42 148.537 1058.12 145.405 1059.98 143.919Z" fill="#283618" fill-opacity="0.7"/>
<path d="M1087.38 168.67C1087.18 163.795 1085.03 159.949 1081.14 157.541C1076.47 154.671 1071.46 154.724 1066.18 157.725C1063.75 159.104 1061.34 160.536 1058.94 161.962L1055.74 163.859C1054.01 164.876 1052.61 166.249 1051.45 168.053L1051.4 168.147L1051.36 168.247C1051.25 168.544 1051.14 168.834 1051.03 169.124C1050.76 169.802 1050.49 170.508 1050.31 171.241C1049.66 174.055 1050.1 176.813 1051.56 179.013C1053.03 181.225 1055.33 182.566 1058.02 182.789C1060.38 182.988 1062.36 183.495 1064.08 184.333C1066.28 185.424 1068.19 187.093 1069.94 189.487C1070.61 190.402 1071.44 191.143 1072.43 191.694C1073.04 192.031 1073.71 192.294 1074.43 192.491C1077.42 193.296 1080.63 192.526 1083.26 190.386C1085.85 188.273 1087.37 185.198 1087.44 181.953C1087.56 176.853 1087.53 172.633 1087.38 168.67ZM1080.52 186.324C1079.34 187.363 1077.81 187.784 1076.33 187.48C1075.28 187.27 1074.4 186.645 1073.64 185.585C1071.95 183.242 1069.86 181.376 1067.41 180.019C1066.81 179.685 1066.18 179.378 1065.53 179.109C1063.59 178.29 1061.49 177.798 1059.1 177.609C1056.63 177.407 1055.07 175.732 1055.03 173.24C1055 171.169 1055.88 169.577 1057.64 168.504C1061.64 166.083 1065.25 163.918 1068.97 161.884C1071.85 160.315 1074.84 160.295 1077.87 161.824C1080.87 163.644 1082.41 166.459 1082.45 170.2C1082.48 174.098 1082.49 177.989 1082.49 181.896C1082.48 183.624 1081.77 185.244 1080.53 186.33L1080.52 186.324Z" fill="#283618" fill-opacity="0.7"/>
<path d="M1074.82 154.111C1074.98 154.218 1075.15 154.319 1075.31 154.411C1077.37 155.553 1079.96 155.638 1082.5 154.633C1087.87 152.511 1091.69 145.955 1090.85 140.317C1090.11 135.344 1086.31 132.542 1081.6 133.509C1078.29 134.189 1075.47 136.303 1073.43 139.622L1073.41 139.654C1071.96 142.191 1071.28 144.647 1071.34 147.158C1071.41 150.154 1072.68 152.688 1074.82 154.114L1074.82 154.111ZM1085.88 142.237C1085.94 145.221 1084.3 148.047 1081.68 149.446C1080.34 150.162 1079.15 150.189 1077.93 149.535C1076.45 148.63 1076.3 146.904 1076.44 145.624C1076.74 142.797 1078.13 140.657 1080.56 139.266C1081.81 138.551 1083.13 138.472 1084.18 139.044L1084.18 139.048C1085.24 139.633 1085.86 140.798 1085.89 142.24L1085.88 142.237Z" fill="#283618" fill-opacity="0.7"/>
<path d="M1089.22 163.743C1089.77 164.35 1090.43 164.856 1091.15 165.257C1092.63 166.077 1094.4 166.451 1096.25 166.299C1099.96 166.011 1102.79 164.148 1105.16 160.439L1105.22 160.343L1105.26 160.238C1105.31 160.063 1105.38 159.858 1105.46 159.635C1105.69 158.975 1105.97 158.159 1106.13 157.284C1106.54 154.894 1105.95 152.57 1104.47 150.744C1102.99 148.92 1100.83 147.848 1098.4 147.712C1093.15 147.432 1088.15 151.382 1087.25 156.514C1086.78 159.247 1087.49 161.877 1089.22 163.737L1089.22 163.743ZM1100.61 157.821C1100.57 157.945 1100.53 158.059 1100.5 158.165C1099.06 160.277 1097.53 161.222 1095.55 161.239C1094.47 161.24 1093.59 160.902 1093.01 160.256C1092.41 159.588 1092.16 158.624 1092.31 157.532C1092.64 154.967 1095.42 152.688 1098.03 152.844C1098.59 152.88 1099.11 153.024 1099.55 153.268C1099.89 153.458 1100.19 153.711 1100.43 154.016C1100.97 154.7 1101.17 155.597 1100.99 156.544C1100.91 156.993 1100.75 157.439 1100.61 157.833L1100.61 157.821Z" fill="#283618" fill-opacity="0.7"/>
<path d="M1106.91 172.069C1106.17 169.561 1104.24 167.828 1101.6 167.311C1097.36 166.479 1092.54 169.101 1090.13 173.55C1087.91 177.621 1088.87 182.259 1092.34 184.322L1092.41 184.359L1092.48 184.384C1092.69 184.446 1092.89 184.517 1093.1 184.588C1093.59 184.756 1094.09 184.929 1094.63 185.025C1098.55 185.707 1102.75 183.727 1105.33 179.977C1107.07 177.459 1107.65 174.573 1106.91 172.069ZM1101.61 176.771C1100.5 178.775 1098.06 180.066 1096.08 179.714C1095.13 179.547 1094.46 179.004 1094.18 178.194C1093.9 177.377 1094.06 176.359 1094.64 175.41C1095.9 173.345 1098.38 172.15 1100.31 172.684C1100.53 172.749 1100.74 172.83 1100.93 172.937C1101.46 173.226 1101.83 173.673 1102 174.227C1102.24 174.986 1102.11 175.893 1101.61 176.771Z" fill="#283618" fill-opacity="0.7"/>
<path d="M1122.05 22.6311C1126.47 19.624 1128.22 13.2281 1125.88 8.66361C1124.77 6.50977 1122.85 5.08386 1120.6 4.76319C1118.33 4.43919 1115.99 5.21239 1114.02 6.94456C1113.6 7.32281 1113.21 7.74931 1112.83 8.17581C1112.67 8.35727 1112.51 8.53548 1112.34 8.7137L1111.16 10.729L1111.05 11.1475C1109.77 14.4007 1109.85 17.4668 1111.3 20.2754C1111.96 21.5594 1112.93 22.57 1114.12 23.2267C1114.69 23.547 1115.32 23.7876 1116 23.9324C1118.03 24.3765 1120.18 23.9159 1122.06 22.6343L1122.05 22.6311ZM1117.28 10.7529C1117.97 10.1938 1118.76 9.95533 1119.49 10.0781C1119.75 10.1181 1119.99 10.1995 1120.21 10.3224C1120.63 10.5553 1120.98 10.9254 1121.23 11.4102C1122.03 12.9318 1121.92 15.0239 1120.97 16.6086L1120.97 16.6214C1120.38 17.6482 1119.65 18.2903 1118.76 18.5954C1117.58 18.9979 1116.46 18.524 1115.81 17.3264C1114.72 15.3711 1115.43 12.2394 1117.28 10.7529Z" fill="#283618" fill-opacity="0.7"/>
<path d="M1144.68 35.506C1144.49 30.6308 1142.33 26.7848 1138.45 24.3772C1133.78 21.5067 1128.76 21.5592 1123.48 24.5597C1121.05 25.9382 1118.65 27.3699 1116.24 28.7954L1113.04 30.6918C1111.31 31.7086 1109.91 33.0817 1108.76 34.886L1108.7 34.9796L1108.66 35.0795C1108.56 35.3761 1108.44 35.6665 1108.33 35.9568C1108.07 36.6343 1107.8 37.3399 1107.62 38.0737C1106.96 40.8871 1107.41 43.6451 1108.87 45.8448C1110.33 48.057 1112.63 49.3985 1115.32 49.6222C1117.69 49.8207 1119.67 50.3281 1121.39 51.1664C1123.58 52.2579 1125.49 53.927 1127.24 56.3206C1127.91 57.2361 1128.75 57.9769 1129.74 58.5273C1130.35 58.865 1131.01 59.1279 1131.74 59.3252C1134.72 60.13 1137.94 59.361 1140.57 57.2206C1143.16 55.1082 1144.68 52.0331 1144.75 48.7884C1144.86 43.6885 1144.84 39.4693 1144.68 35.506ZM1137.83 53.1586C1136.64 54.1977 1135.12 54.6181 1133.63 54.3141C1132.58 54.1041 1131.71 53.4788 1130.94 52.4195C1129.25 50.076 1127.16 48.21 1124.72 46.8528C1124.11 46.5182 1123.49 46.2117 1122.84 45.9426C1120.9 45.1229 1118.79 44.631 1116.4 44.4419C1113.93 44.2402 1112.38 42.5651 1112.34 40.0729C1112.3 38.0023 1113.19 36.4102 1114.95 35.3372C1118.94 32.9166 1122.55 30.7519 1126.28 28.7185C1129.15 27.1497 1132.14 27.1301 1135.17 28.6595C1138.17 30.4794 1139.71 33.2944 1139.75 37.0358C1139.79 40.9334 1139.8 44.8247 1139.79 48.7316C1139.79 50.4586 1139.07 52.0789 1137.84 53.1648L1137.83 53.1586Z" fill="#283618" fill-opacity="0.7"/>
<path d="M1132.12 20.9449C1132.29 21.0522 1132.45 21.153 1132.62 21.2443C1134.68 22.3867 1137.26 22.4721 1139.81 21.4673C1145.18 19.3463 1148.99 12.7904 1148.15 7.15285C1147.41 2.17967 1143.61 -0.623011 1138.9 0.343789C1135.6 1.02283 1132.77 3.13684 1130.73 6.45598L1130.71 6.48813C1129.26 9.02473 1128.59 11.4808 1128.65 13.991C1128.72 16.9872 1129.99 19.5217 1132.13 20.948L1132.12 20.9449ZM1143.19 9.07187C1143.25 12.0554 1141.6 14.8816 1138.99 16.2805C1137.65 16.9963 1136.46 17.023 1135.23 16.3688C1133.75 15.4642 1133.61 13.7384 1133.74 12.4578C1134.04 9.6309 1135.43 7.49148 1137.86 6.10065C1139.11 5.38575 1140.44 5.30663 1141.48 5.87928L1141.49 5.88243C1142.55 6.46781 1143.16 7.63284 1143.2 9.07502L1143.19 9.07187Z" fill="#283618" fill-opacity="0.7"/>
<path d="M1146.52 30.5762C1147.08 31.1841 1147.73 31.6895 1148.46 32.091C1149.94 32.9107 1151.7 33.2847 1153.56 33.1332C1157.26 32.8454 1160.1 30.9829 1162.47 27.2737L1162.52 27.1784L1162.56 27.0729C1162.61 26.8979 1162.68 26.693 1162.76 26.4702C1162.99 25.8105 1163.28 24.9943 1163.43 24.1198C1163.84 21.7297 1163.25 19.4058 1161.77 17.5788C1160.3 15.7552 1158.13 14.683 1155.71 14.5472C1150.45 14.266 1145.45 18.2157 1144.55 23.3474C1144.08 26.0804 1144.8 28.7103 1146.52 30.5702L1146.52 30.5762ZM1157.92 24.6562C1157.87 24.7795 1157.84 24.8942 1157.8 24.9997C1156.36 27.1118 1154.84 28.0562 1152.85 28.073C1151.78 28.0745 1150.9 27.7361 1150.31 27.0902C1149.72 26.4223 1149.47 25.4585 1149.61 24.3661C1149.95 21.8011 1152.73 19.5227 1155.34 19.6791C1155.9 19.7147 1156.41 19.8583 1156.85 20.1025C1157.19 20.2932 1157.5 20.5462 1157.73 20.8513C1158.27 21.5348 1158.47 22.4321 1158.29 23.3789C1158.21 23.8281 1158.05 24.2736 1157.91 24.6681L1157.92 24.6562Z" fill="#283618" fill-opacity="0.7"/>
<path d="M1164.21 38.9041C1163.47 36.3966 1161.54 34.6632 1158.9 34.1461C1154.67 33.3131 1149.84 35.9351 1147.43 40.3837C1145.22 44.4542 1146.17 49.0923 1149.64 51.1553L1149.71 51.1931L1149.79 51.2178C1149.99 51.2795 1150.2 51.3508 1150.41 51.4221C1150.89 51.5895 1151.39 51.7631 1151.94 51.8586C1155.85 52.5411 1160.05 50.5619 1162.64 46.8123C1164.38 44.2941 1164.96 41.4082 1164.21 38.9041ZM1158.92 43.6053C1157.8 45.61 1155.37 46.9003 1153.39 46.5481C1152.43 46.3812 1151.76 45.8382 1151.48 45.0277C1151.2 44.2107 1151.37 43.1931 1151.95 42.2437C1153.2 40.1788 1155.69 38.9847 1157.61 39.5188C1157.84 39.5834 1158.04 39.6644 1158.24 39.7714C1158.76 40.0611 1159.13 40.5082 1159.31 41.0617C1159.55 41.8212 1159.41 42.7283 1158.92 43.6053Z" fill="#283618" fill-opacity="0.7"/>
<path d="M1226.25 94.9475C1230.67 91.9399 1232.42 85.5438 1230.07 80.9795C1228.97 78.8257 1227.05 77.3999 1224.8 77.0795C1222.53 76.7557 1220.19 77.5291 1218.22 79.2615C1217.8 79.6398 1217.41 80.0663 1217.03 80.4929C1216.87 80.6744 1216.71 80.8526 1216.54 81.0308L1215.35 83.0462L1215.24 83.4648C1213.97 86.7181 1214.05 89.7843 1215.49 92.5928C1216.15 93.8767 1217.13 94.8873 1218.31 95.5439C1218.89 95.8641 1219.52 96.1047 1220.19 96.2494C1222.22 96.6934 1224.38 96.2325 1226.25 94.9508L1226.25 94.9475ZM1221.48 83.0696C1222.17 82.5104 1222.95 82.2719 1223.69 82.3946C1223.94 82.4345 1224.18 82.5159 1224.4 82.6388C1224.82 82.8717 1225.17 83.2418 1225.43 83.7265C1226.23 85.248 1226.12 87.3402 1225.17 88.9251L1225.16 88.9378C1224.57 89.9648 1223.85 90.6069 1222.96 90.912C1221.77 91.3147 1220.66 90.8409 1220 89.6434C1218.92 87.6881 1219.63 84.5563 1221.48 83.0696Z" fill="#283618" fill-opacity="0.7"/>
<path d="M1248.88 107.821C1248.69 102.946 1246.53 99.0998 1242.65 96.6924C1237.97 93.8224 1232.96 93.8753 1227.68 96.8764C1225.25 98.2552 1222.85 99.6872 1220.44 101.113L1217.24 103.01C1215.51 104.027 1214.11 105.4 1212.96 107.204L1212.9 107.298L1212.86 107.398C1212.76 107.695 1212.64 107.985 1212.53 108.275C1212.26 108.953 1211.99 109.659 1211.82 110.392C1211.16 113.206 1211.61 115.964 1213.06 118.164C1214.53 120.376 1216.83 121.717 1219.52 121.941C1221.88 122.139 1223.87 122.646 1225.59 123.484C1227.78 124.576 1229.69 126.245 1231.44 128.638C1232.11 129.554 1232.94 130.294 1233.93 130.845C1234.54 131.182 1235.21 131.445 1235.94 131.642C1238.92 132.447 1242.13 131.678 1244.76 129.537C1247.35 127.424 1248.87 124.349 1248.95 121.104C1249.06 116.004 1249.04 111.784 1248.88 107.821ZM1242.02 125.475C1240.84 126.514 1239.31 126.935 1237.83 126.631C1236.78 126.421 1235.91 125.796 1235.14 124.736C1233.45 122.393 1231.36 120.527 1228.91 119.17C1228.31 118.836 1227.68 118.529 1227.03 118.26C1225.1 117.441 1222.99 116.949 1220.6 116.76C1218.13 116.558 1216.58 114.883 1216.54 112.391C1216.5 110.32 1217.38 108.728 1219.15 107.655C1223.14 105.234 1226.75 103.069 1230.48 101.035C1233.35 99.466 1236.34 99.4461 1239.37 100.975C1242.37 102.795 1243.91 105.61 1243.95 109.351C1243.98 113.249 1243.99 117.141 1243.99 121.048C1243.99 122.775 1243.27 124.395 1242.04 125.481L1242.02 125.475Z" fill="#283618" fill-opacity="0.7"/>
<path d="M1236.32 93.2623C1236.48 93.3695 1236.65 93.4703 1236.82 93.5616C1238.88 94.7038 1241.46 94.789 1244.01 93.7839C1249.37 91.6625 1253.19 85.1061 1252.35 79.4685C1251.61 74.4953 1247.81 71.693 1243.1 72.6602C1239.8 73.3396 1236.97 75.4539 1234.93 78.7733L1234.91 78.8054C1233.46 81.3422 1232.79 83.7984 1232.85 86.3086C1232.91 89.3049 1234.18 91.8393 1236.33 93.2654L1236.32 93.2623ZM1247.39 81.388C1247.45 84.3716 1245.8 87.198 1243.19 88.5972C1241.85 89.313 1240.66 89.3399 1239.43 88.6858C1237.95 87.7813 1237.8 86.0555 1237.94 84.7749C1238.24 81.9479 1239.63 79.8083 1242.06 78.4173C1243.31 77.7022 1244.63 77.623 1245.68 78.1955L1245.69 78.1987C1246.74 78.784 1247.36 79.949 1247.39 81.3912L1247.39 81.388Z" fill="#283618" fill-opacity="0.7"/>
<path d="M718.706 70.6709C723.126 67.6661 724.875 61.2715 722.525 56.7063C721.414 54.5522 719.494 53.1255 717.246 52.8038C714.977 52.4789 712.64 53.2509 710.668 54.9821C710.243 55.3601 709.86 55.7864 709.477 56.2127C709.319 56.3941 709.155 56.5722 708.991 56.7503L707.803 58.7649L707.693 59.1833C706.418 62.4357 706.504 65.5015 707.947 68.3106C708.61 69.5948 709.584 70.6058 710.769 71.2629C711.347 71.5834 711.979 71.8243 712.649 71.9694C714.68 72.4144 716.837 71.9548 718.712 70.6742L718.706 70.6709ZM713.93 58.7916C714.62 58.2329 715.404 57.9947 716.141 58.1179C716.395 58.1579 716.633 58.2394 716.855 58.3625C717.275 58.5955 717.625 58.9658 717.877 59.4506C718.681 60.9724 718.573 63.0643 717.624 64.6485L717.617 64.6612C717.027 65.6877 716.305 66.3294 715.414 66.6341C714.229 67.036 713.115 66.5617 712.456 65.3639C711.371 63.4083 712.076 60.2771 713.93 58.7916Z" fill="#283618" fill-opacity="0.7"/>
<path d="M741.333 83.5525C741.135 78.6779 738.977 74.8315 735.093 72.4226C730.418 69.5505 725.404 69.6007 720.126 72.5983C717.698 73.9756 715.292 75.4059 712.889 76.83L709.687 78.7247C707.958 79.7406 706.56 81.1128 705.405 82.9163L705.351 83.0099L705.309 83.1098C705.205 83.4063 705.091 83.6965 704.976 83.9868C704.714 84.6641 704.442 85.3694 704.266 86.103C703.611 88.9156 704.058 91.6734 705.517 93.8734C706.985 96.0859 709.286 97.4282 711.977 97.6531C714.34 97.8526 716.325 98.3608 718.045 99.1997C720.238 100.292 722.151 101.962 723.901 104.356C724.573 105.271 725.404 106.013 726.398 106.563C727.007 106.901 727.674 107.164 728.402 107.362C731.383 108.168 734.6 107.401 737.227 105.262C739.816 103.151 741.336 100.077 741.406 96.8326C741.515 91.7337 741.49 87.5151 741.333 83.5525ZM734.486 101.199C733.302 102.237 731.774 102.657 730.289 102.352C729.242 102.142 728.366 101.516 727.598 100.457C725.909 98.1131 723.819 96.2465 721.37 94.8884C720.766 94.5535 720.139 94.2468 719.49 93.9775C717.551 93.1571 715.445 92.6643 713.055 92.4741C710.582 92.2713 709.029 90.5958 708.988 88.104C708.949 86.0337 709.833 84.4422 711.595 83.3702C715.588 80.9519 719.196 78.7892 722.923 76.7577C725.795 75.1905 728.789 75.1722 731.816 76.7028C734.817 78.5237 736.362 81.3389 736.401 85.0797C736.44 88.9767 736.452 92.8674 736.448 96.7736C736.445 98.5004 735.731 100.12 734.497 101.205L734.486 101.199Z" fill="#283618" fill-opacity="0.7"/>
<path d="M728.777 68.9803C728.94 69.0877 729.107 69.1886 729.272 69.2799C731.333 70.4232 733.919 70.5098 736.465 69.5062C741.831 67.3878 745.647 60.834 744.804 55.1964C744.059 50.2232 740.255 47.419 735.545 48.3836C732.243 49.0611 729.42 51.1737 727.379 54.4917L727.361 54.5239C725.912 57.0597 725.235 59.5153 725.299 62.0253C725.368 65.0214 726.637 67.5563 728.783 68.9835L728.777 68.9803ZM739.839 57.1131C739.901 60.0965 738.255 62.9218 735.641 64.3194C734.301 65.0344 733.11 65.0606 731.884 64.4059C730.405 63.5007 730.258 61.7749 730.394 60.4945C730.692 57.668 732.078 55.5293 734.508 54.1397C735.757 53.4254 737.083 53.3468 738.132 53.9199L738.137 53.9231C739.194 54.5089 739.812 55.6741 739.845 57.1162L739.839 57.1131Z" fill="#283618" fill-opacity="0.7"/>
<path d="M743.172 78.611C743.73 79.2192 744.387 79.7248 745.112 80.1266C746.591 80.9468 748.358 81.3216 750.211 81.1709C753.918 80.8848 756.754 79.0238 759.123 75.3161L759.177 75.2208L759.214 75.1154C759.267 74.9404 759.337 74.7355 759.417 74.5128C759.645 73.8533 759.93 73.0373 760.082 72.1629C760.492 69.7733 759.9 67.4494 758.418 65.6219C756.943 63.7978 754.781 62.7247 752.352 62.5879C747.094 62.3044 742.096 66.2514 741.203 71.3821C740.732 74.1147 741.45 76.7446 743.176 78.6051L743.172 78.611ZM754.569 72.6968C754.523 72.8201 754.488 72.9348 754.452 73.0402C753.016 75.1515 751.487 76.0951 749.504 76.111C748.429 76.112 747.549 75.7732 746.964 75.1271C746.369 74.4591 746.119 73.4952 746.26 72.403C746.595 69.8384 749.376 67.5615 751.984 67.7191C752.544 67.7549 753.059 67.8988 753.499 68.1432C753.844 68.334 754.144 68.587 754.383 68.8922C754.921 69.576 755.122 70.4732 754.945 71.4198C754.862 71.8689 754.702 72.3144 754.563 72.7087L754.569 72.6968Z" fill="#283618" fill-opacity="0.7"/>
<path d="M760.86 86.9473C760.12 84.4397 758.187 82.7056 755.547 82.1873C751.314 81.3525 746.49 83.9721 744.078 88.4193C741.868 92.4885 742.823 97.1266 746.297 99.191L746.366 99.2288L746.441 99.2536C746.646 99.3153 746.852 99.3867 747.058 99.4581C747.546 99.6257 748.046 99.7996 748.59 99.8952C752.506 100.579 756.706 98.6024 759.293 94.8542C761.031 92.337 761.61 89.4516 760.86 86.9473ZM755.569 91.6458C754.455 93.6498 752.022 94.9389 750.036 94.5859C749.084 94.4185 748.414 93.8753 748.13 93.0648C747.85 92.2477 748.015 91.2302 748.598 90.2812C749.851 88.217 752.334 87.0242 754.26 87.5591C754.485 87.6237 754.693 87.7048 754.886 87.8119C755.409 88.1019 755.782 88.5491 755.958 89.1026C756.196 89.8621 756.065 90.7691 755.569 91.6458Z" fill="#283618" fill-opacity="0.7"/>
</svg>
