<svg width="1232" height="388" viewBox="0 0 1232 388" fill="none" xmlns="http://www.w3.org/2000/svg">
<path d="M15.0163 338.719C19.3646 335.73 21.0671 329.345 18.734 324.775C17.6318 322.618 15.7328 321.186 13.5154 320.857C11.2772 320.524 8.97531 321.288 7.03676 323.012C6.619 323.388 6.24238 323.813 5.86576 324.238C5.71052 324.418 5.54952 324.596 5.38851 324.773L4.22398 326.783L4.11743 327.201C2.87087 330.447 2.96645 333.511 4.39829 336.324C5.05673 337.609 6.02077 338.623 7.19158 339.284C7.76257 339.606 8.38599 339.849 9.04813 339.996C11.0519 340.448 13.1778 339.996 15.0221 338.722L15.0163 338.719ZM10.2659 326.83C10.9448 326.274 11.7164 326.038 12.444 326.164C12.6947 326.205 12.9297 326.287 13.1488 326.411C13.5641 326.645 13.9098 327.016 14.1606 327.502C14.9584 329.025 14.8585 331.116 13.9287 332.696L13.9215 332.709C13.3436 333.733 12.6332 334.372 11.7558 334.673C10.5884 335.071 9.48918 334.593 8.83522 333.394C7.75784 331.435 8.44285 328.308 10.2659 326.83Z" fill="#283618" fill-opacity="0.7"/>
<path d="M37.2663 351.65C37.054 346.78 34.9141 342.931 31.0782 340.512C26.4617 337.627 21.5207 337.661 16.3293 340.637C13.9412 342.005 11.5746 343.425 9.21157 344.84L6.06315 346.722C4.36238 347.73 2.98904 349.097 1.85702 350.894L1.80435 350.987L1.76282 351.087C1.66198 351.383 1.54999 351.672 1.438 351.962C1.18159 352.637 0.916696 353.341 0.745914 354.073C0.109278 356.88 0.559385 359.637 2.0052 361.839C3.45865 364.054 5.73167 365.402 8.38409 365.636C10.7135 365.843 12.6713 366.357 14.3696 367.201C16.534 368.3 18.4248 369.974 20.1574 372.371C20.8227 373.288 21.645 374.031 22.6256 374.584C23.2273 374.924 23.8859 375.189 24.6032 375.388C27.5446 376.204 30.7114 375.448 33.2933 373.32C35.8375 371.22 37.325 368.155 37.3833 364.915C37.4732 359.822 37.4344 355.608 37.2663 351.65ZM30.5784 369.253C29.4149 370.286 27.9103 370.7 26.4466 370.391C25.4138 370.177 24.5486 369.55 23.7882 368.489C22.1154 366.142 20.0494 364.27 17.6313 362.906C17.0351 362.569 16.4158 362.261 15.7755 361.99C13.8614 361.164 11.7849 360.664 9.42828 360.466C6.99072 360.256 5.45511 358.577 5.40533 356.088C5.36033 354.02 6.22642 352.433 7.95878 351.368C11.8858 348.966 15.4343 346.818 19.0996 344.801C21.9245 343.245 24.8751 343.237 27.8634 344.776C30.8277 346.605 32.3599 349.422 32.4109 353.159C32.462 357.051 32.4873 360.938 32.4964 364.839C32.5001 366.564 31.8014 368.18 30.5896 369.259L30.5784 369.253Z" fill="#283618" fill-opacity="0.7"/>
<path d="M24.926 336.995C25.0871 337.103 25.2519 337.205 25.4146 337.296C27.4517 338.446 30.0025 338.541 32.51 337.547C37.7941 335.447 41.5359 328.909 40.6853 323.271C39.9332 318.297 36.1726 315.482 31.5307 316.43C28.2763 317.096 25.499 319.198 23.4979 322.508L23.4798 322.54C22.0594 325.07 21.4005 327.522 21.4716 330.032C21.5497 333.027 22.8107 335.565 24.9316 336.998L24.926 336.995ZM35.7953 325.17C35.8658 328.152 34.2529 330.971 31.6787 332.359C30.3603 333.07 29.1861 333.092 27.9743 332.433C26.5121 331.523 26.3613 329.798 26.4914 328.518C26.7757 325.694 28.135 323.561 30.5274 322.18C31.7568 321.47 33.0638 321.396 34.1 321.973L34.1056 321.976C35.1494 322.565 35.7636 323.732 35.8009 325.173L35.7953 325.17Z" fill="#283618" fill-opacity="0.7"/>
<path d="M39.0923 346.622C39.6447 347.232 40.294 347.739 41.0096 348.143C42.4707 348.968 44.214 349.348 46.0411 349.204C49.6945 348.93 52.4844 347.08 54.8068 343.383L54.8605 343.288L54.8963 343.183C54.9477 343.008 55.0159 342.804 55.0942 342.581C55.3164 341.923 55.5952 341.109 55.742 340.235C56.1375 337.849 55.5463 335.525 54.0793 333.693C52.6182 331.866 50.4832 330.786 48.088 330.641C42.903 330.34 37.9894 334.268 37.1262 339.392C36.6711 342.121 37.3882 344.751 39.0957 346.616L39.0923 346.622ZM50.3088 340.75C50.2629 340.873 50.2298 340.988 50.194 341.093C48.7858 343.198 47.2815 344.136 45.3262 344.145C44.2661 344.143 43.3973 343.801 42.8192 343.154C42.2299 342.484 41.9798 341.52 42.1159 340.429C42.4371 337.867 45.1707 335.601 47.7425 335.768C48.2953 335.805 48.8029 335.951 49.2383 336.196C49.5782 336.388 49.8753 336.642 50.1116 336.948C50.645 337.633 50.8462 338.53 50.6744 339.476C50.5943 339.924 50.4377 340.369 50.3021 340.762L50.3088 340.75Z" fill="#283618" fill-opacity="0.7"/>
<path d="M56.4941 355.021C55.7559 352.513 53.8433 350.773 51.2388 350.246C47.0614 349.398 42.3135 352 39.9503 356.436C37.785 360.496 38.7424 365.135 42.1757 367.21L42.2431 367.248L42.3178 367.273C42.5195 367.335 42.7231 367.407 42.9268 367.479C43.4087 367.648 43.9019 367.824 44.4391 367.921C48.3023 368.618 52.4372 366.656 54.9759 362.919C56.6812 360.409 57.2417 357.527 56.4941 355.021ZM51.2926 359.7C50.2013 361.699 47.8057 362.979 45.8471 362.62C44.9069 362.449 44.2449 361.904 43.9623 361.093C43.6835 360.275 43.8426 359.259 44.4138 358.312C45.6424 356.253 48.0872 355.07 49.9878 355.611C50.21 355.676 50.4155 355.758 50.6064 355.865C51.1229 356.157 51.4918 356.605 51.6678 357.159C51.9052 357.919 51.7787 358.825 51.2926 359.7Z" fill="#283618" fill-opacity="0.7"/>
<path d="M438.418 81.5555C442.766 78.5671 444.468 72.1819 442.135 67.6114C441.033 65.4547 439.134 64.0224 436.917 63.6934C434.678 63.361 432.377 64.1248 430.438 65.8484C430.02 66.2248 429.644 66.6496 429.267 67.0743C429.112 67.2551 428.951 67.4325 428.79 67.61L427.625 69.6195L427.519 70.0374C426.272 73.2836 426.368 76.3481 427.799 79.1605C428.458 80.4461 429.422 81.4598 430.593 82.1206C431.164 82.4429 431.787 82.6857 432.449 82.833C434.453 83.2846 436.579 82.8324 438.423 81.5588L438.418 81.5555ZM433.667 69.6667C434.346 69.1106 435.118 68.8752 435.845 69.0008C436.096 69.0416 436.331 69.1239 436.55 69.2476C436.965 69.482 437.311 69.8532 437.562 70.3385C438.36 71.8622 438.26 73.9526 437.33 75.5327L437.323 75.5455C436.745 76.5694 436.034 77.2084 435.157 77.5098C433.99 77.9076 432.89 77.4298 432.236 76.2305C431.159 74.2723 431.844 71.1452 433.667 69.6667Z" fill="#283618" fill-opacity="0.7"/>
<path d="M460.668 94.4864C460.455 89.6168 458.315 85.7676 454.479 83.3484C449.863 80.464 444.922 80.4974 439.73 83.4739C437.342 84.8415 434.976 86.2621 432.613 87.6766L429.464 89.5584C427.764 90.5673 426.39 91.9333 425.258 93.7308L425.206 93.8242L425.164 93.9238C425.063 94.2196 424.951 94.5091 424.839 94.7987C424.583 95.4743 424.318 96.1779 424.147 96.9101C423.51 99.7173 423.961 102.473 425.406 104.676C426.86 106.891 429.133 108.239 431.785 108.473C434.115 108.68 436.072 109.194 437.771 110.038C439.935 111.136 441.826 112.811 443.559 115.208C444.224 116.124 445.046 116.867 446.027 117.421C446.629 117.76 447.287 118.026 448.004 118.225C450.946 119.04 454.113 118.285 456.695 116.157C459.239 114.057 460.726 110.992 460.784 107.752C460.874 102.659 460.836 98.4451 460.668 94.4864ZM453.98 112.09C452.816 113.123 451.311 113.537 449.848 113.228C448.815 113.014 447.95 112.386 447.189 111.326C445.517 108.979 443.451 107.107 441.033 105.743C440.436 105.406 439.817 105.098 439.177 104.826C437.263 104 435.186 103.501 432.829 103.303C430.392 103.092 428.856 101.414 428.807 98.9245C428.762 96.8565 429.628 95.2698 431.36 94.2049C435.287 91.8027 438.836 89.6545 442.501 87.6379C445.326 86.0821 448.276 86.0738 451.265 87.6127C454.229 89.4416 455.761 92.2588 455.812 95.9954C455.863 99.8881 455.888 103.774 455.898 107.676C455.901 109.401 455.203 111.016 453.991 112.096L453.98 112.09Z" fill="#283618" fill-opacity="0.7"/>
<path d="M448.327 79.8321C448.488 79.9399 448.653 80.0413 448.816 80.1332C450.853 81.2829 453.404 81.3781 455.911 80.3834C461.195 78.2839 464.937 71.7457 464.086 66.1077C463.334 61.1341 459.574 58.3184 454.932 59.2668C451.678 59.933 448.9 62.0352 446.899 65.345L446.881 65.3771C445.461 67.9069 444.802 70.3592 444.873 72.8684C444.951 75.8634 446.212 78.4015 448.333 79.8352L448.327 79.8321ZM459.197 68.0069C459.267 70.9892 457.654 73.8078 455.08 75.1961C453.762 75.9064 452.587 75.9285 451.376 75.27C449.913 74.3602 449.762 72.6347 449.893 71.3553C450.177 68.5309 451.536 66.3978 453.929 65.0169C455.158 64.3071 456.465 64.233 457.501 64.8094L457.507 64.8126C458.551 65.4017 459.165 66.5685 459.202 68.0101L459.197 68.0069Z" fill="#283618" fill-opacity="0.7"/>
<path d="M462.493 89.4591C463.046 90.0686 463.695 90.5762 464.411 90.98C465.872 91.8047 467.615 92.1851 469.442 92.0407C473.096 91.7672 475.886 89.917 478.208 86.2199L478.262 86.1248L478.297 86.0196C478.349 85.8449 478.417 85.6404 478.495 85.4182C478.718 84.7598 478.996 83.9454 479.143 83.0722C479.539 80.6856 478.948 78.3614 477.48 76.5303C476.019 74.7026 473.884 73.623 471.489 73.4781C466.304 73.1772 461.391 77.1047 460.527 82.2288C460.072 84.9578 460.789 87.5882 462.497 89.4531L462.493 89.4591ZM473.71 83.5873C473.664 83.7103 473.631 83.8248 473.595 83.93C472.187 86.0349 470.683 86.9728 468.727 86.9821C467.667 86.9794 466.798 86.638 466.22 85.9904C465.631 85.3208 465.381 84.3568 465.517 83.2658C465.838 80.7042 468.572 78.4382 471.144 78.6044C471.696 78.6421 472.204 78.7876 472.639 79.0333C472.979 79.2251 473.276 79.479 473.513 79.7848C474.046 80.4698 474.247 81.3671 474.076 82.3124C473.995 82.7609 473.839 83.2055 473.703 83.5991L473.71 83.5873Z" fill="#283618" fill-opacity="0.7"/>
<path d="M479.895 97.8582C479.157 95.3494 477.244 93.6098 474.64 93.083C470.463 92.2345 465.715 94.8365 463.351 99.2731C461.186 103.333 462.144 107.971 465.577 110.046L465.644 110.084L465.719 110.109C465.921 110.172 466.124 110.244 466.328 110.316C466.81 110.485 467.303 110.66 467.84 110.758C471.703 111.455 475.838 109.493 478.377 105.755C480.082 103.245 480.643 100.364 479.895 97.8582ZM474.694 102.536C473.602 104.536 471.207 105.816 469.248 105.456C468.308 105.286 467.646 104.741 467.364 103.93C467.085 103.112 467.244 102.096 467.815 101.149C469.044 99.0903 471.488 97.9064 473.389 98.4475C473.611 98.5129 473.817 98.5946 474.008 98.7023C474.524 98.9938 474.893 99.4421 475.069 99.9958C475.306 100.756 475.18 101.662 474.694 102.536Z" fill="#283618" fill-opacity="0.7"/>
<path d="M431.758 182.463C436.106 179.475 437.809 173.089 435.476 168.519C434.373 166.362 432.475 164.93 430.257 164.601C428.019 164.269 425.717 165.032 423.778 166.756C423.361 167.132 422.984 167.557 422.607 167.982C422.452 168.163 422.291 168.34 422.13 168.518L420.966 170.527L420.859 170.945C419.613 174.191 419.708 177.256 421.14 180.068C421.798 181.354 422.762 182.367 423.933 183.028C424.504 183.35 425.128 183.593 425.79 183.741C427.794 184.192 429.919 183.74 431.764 182.466L431.758 182.463ZM427.008 170.574C427.686 170.018 428.458 169.783 429.186 169.908C429.436 169.949 429.671 170.031 429.891 170.155C430.306 170.39 430.651 170.761 430.902 171.246C431.7 172.77 431.6 174.86 430.67 176.44L430.663 176.453C430.085 177.477 429.375 178.116 428.498 178.417C427.33 178.815 426.231 178.337 425.577 177.138C424.5 175.18 425.185 172.053 427.008 170.574Z" fill="#283618" fill-opacity="0.7"/>
<path d="M454.008 195.394C453.796 190.524 451.656 186.675 447.82 184.256C443.203 181.372 438.262 181.405 433.071 184.381C430.683 185.749 428.316 187.17 425.953 188.584L422.805 190.466C421.104 191.475 419.731 192.841 418.599 194.638L418.546 194.732L418.505 194.831C418.404 195.127 418.292 195.417 418.18 195.706C417.923 196.382 417.658 197.086 417.488 197.818C416.851 200.625 417.301 203.381 418.747 205.583C420.2 207.798 422.473 209.147 425.126 209.38C427.455 209.587 429.413 210.102 431.111 210.945C433.276 212.044 435.166 213.718 436.899 216.115C437.564 217.032 438.387 217.775 439.367 218.328C439.969 218.668 440.628 218.933 441.345 219.133C444.286 219.948 447.453 219.192 450.035 217.065C452.579 214.965 454.067 211.899 454.125 208.659C454.215 203.566 454.176 199.353 454.008 195.394ZM447.32 212.997C446.157 214.031 444.652 214.445 443.188 214.136C442.155 213.922 441.29 213.294 440.53 212.233C438.857 209.886 436.791 208.015 434.373 206.65C433.777 206.314 433.158 206.005 432.517 205.734C430.603 204.908 428.527 204.409 426.17 204.211C423.732 204 422.197 202.321 422.147 199.832C422.102 197.764 422.968 196.177 424.7 195.112C428.627 192.71 432.176 190.562 435.841 188.545C438.666 186.99 441.617 186.981 444.605 188.52C447.569 190.349 449.102 193.166 449.153 196.903C449.204 200.796 449.229 204.682 449.238 208.584C449.242 210.308 448.543 211.924 447.331 213.004L447.32 212.997Z" fill="#283618" fill-opacity="0.7"/>
<path d="M441.668 180.74C441.829 180.847 441.994 180.949 442.156 181.041C444.193 182.19 446.744 182.286 449.252 181.291C454.536 179.191 458.278 172.653 457.427 167.015C456.675 162.042 452.914 159.226 448.272 160.174C445.018 160.841 442.241 162.943 440.24 166.253L440.221 166.285C438.801 168.814 438.142 171.267 438.213 173.776C438.291 176.771 439.552 179.309 441.673 180.743L441.668 180.74ZM452.537 168.914C452.608 171.897 450.995 174.715 448.42 176.104C447.102 176.814 445.928 176.836 444.716 176.178C443.254 175.268 443.103 173.542 443.233 172.263C443.517 169.439 444.877 167.305 447.269 165.924C448.498 165.215 449.806 165.141 450.842 165.717L450.847 165.72C451.891 166.309 452.505 167.476 452.543 168.918L452.537 168.914Z" fill="#283618" fill-opacity="0.7"/>
<path d="M455.834 190.367C456.386 190.976 457.036 191.484 457.751 191.888C459.212 192.712 460.956 193.093 462.783 192.948C466.436 192.675 469.226 190.825 471.549 187.127L471.602 187.032L471.638 186.927C471.689 186.752 471.758 186.548 471.836 186.326C472.058 185.667 472.337 184.853 472.484 183.98C472.879 181.593 472.288 179.269 470.821 177.438C469.36 175.61 467.225 174.531 464.83 174.386C459.645 174.085 454.731 178.012 453.868 183.136C453.413 185.865 454.13 188.496 455.837 190.361L455.834 190.367ZM467.05 184.495C467.005 184.618 466.971 184.732 466.936 184.838C465.528 186.943 464.023 187.88 462.068 187.89C461.008 187.887 460.139 187.546 459.561 186.898C458.972 186.228 458.722 185.264 458.858 184.173C459.179 181.612 461.912 179.346 464.484 179.512C465.037 179.55 465.545 179.695 465.98 179.941C466.32 180.133 466.617 180.387 466.853 180.692C467.387 181.377 467.588 182.275 467.416 183.22C467.336 183.669 467.179 184.113 467.044 184.507L467.05 184.495Z" fill="#283618" fill-opacity="0.7"/>
<path d="M473.236 198.766C472.498 196.257 470.585 194.517 467.98 193.991C463.803 193.142 459.055 195.744 456.692 200.181C454.527 204.24 455.484 208.879 458.917 210.954L458.985 210.992L459.06 211.017C459.261 211.079 459.465 211.151 459.668 211.223C460.15 211.393 460.644 211.568 461.181 211.665C465.044 212.362 469.179 210.4 471.718 206.663C473.423 204.153 473.983 201.271 473.236 198.766ZM468.034 203.444C466.943 205.443 464.547 206.723 462.589 206.364C461.649 206.193 460.987 205.648 460.704 204.837C460.425 204.02 460.584 203.003 461.155 202.057C462.384 199.998 464.829 198.814 466.729 199.355C466.952 199.42 467.157 199.502 467.348 199.61C467.865 199.901 468.233 200.35 468.409 200.903C468.647 201.663 468.52 202.569 468.034 203.444Z" fill="#283618" fill-opacity="0.7"/>
<path d="M571.335 176.968C575.683 173.979 577.386 167.594 575.053 163.023C573.95 160.867 572.051 159.434 569.834 159.105C567.596 158.773 565.294 159.537 563.355 161.26C562.938 161.637 562.561 162.062 562.184 162.486C562.029 162.667 561.868 162.845 561.707 163.022L560.543 165.032L560.436 165.449C559.189 168.696 559.285 171.76 560.717 174.572C561.375 175.858 562.339 176.872 563.51 177.533C564.081 177.855 564.705 178.098 565.367 178.245C567.37 178.697 569.496 178.244 571.341 176.971L571.335 176.968ZM566.585 165.079C567.263 164.523 568.035 164.287 568.763 164.413C569.013 164.454 569.248 164.536 569.467 164.66C569.883 164.894 570.228 165.265 570.479 165.751C571.277 167.274 571.177 169.365 570.247 170.945L570.24 170.957C569.662 171.981 568.952 172.62 568.074 172.922C566.907 173.32 565.808 172.842 565.154 171.642C564.076 169.684 564.761 166.557 566.585 165.079Z" fill="#283618" fill-opacity="0.7"/>
<path d="M593.585 189.898C593.373 185.029 591.233 181.18 587.397 178.76C582.78 175.876 577.839 175.909 572.648 178.886C570.26 180.253 567.893 181.674 565.53 183.089L562.382 184.97C560.681 185.979 559.308 187.345 558.176 189.143L558.123 189.236L558.081 189.336C557.981 189.632 557.869 189.921 557.757 190.211C557.5 190.886 557.235 191.59 557.065 192.322C556.428 195.129 556.878 197.885 558.324 200.088C559.777 202.303 562.05 203.651 564.703 203.885C567.032 204.092 568.99 204.606 570.688 205.45C572.853 206.548 574.743 208.223 576.476 210.62C577.141 211.536 577.964 212.279 578.944 212.833C579.546 213.172 580.204 213.438 580.922 213.637C583.863 214.452 587.03 213.697 589.612 211.569C592.156 209.469 593.644 206.404 593.702 203.164C593.792 198.071 593.753 193.857 593.585 189.898ZM586.897 207.502C585.734 208.535 584.229 208.949 582.765 208.64C581.732 208.426 580.867 207.798 580.107 206.738C578.434 204.391 576.368 202.519 573.95 201.155C573.354 200.818 572.734 200.51 572.094 200.238C570.18 199.412 568.104 198.913 565.747 198.715C563.309 198.504 561.774 196.826 561.724 194.337C561.679 192.268 562.545 190.682 564.277 189.617C568.204 187.215 571.753 185.067 575.418 183.05C578.243 181.494 581.194 181.486 584.182 183.025C587.146 184.854 588.679 187.671 588.729 191.407C588.781 195.3 588.806 199.186 588.815 203.088C588.819 204.813 588.12 206.428 586.908 207.508L586.897 207.502Z" fill="#283618" fill-opacity="0.7"/>
<path d="M581.245 175.244C581.406 175.352 581.57 175.453 581.733 175.545C583.77 176.695 586.321 176.79 588.829 175.795C594.113 173.696 597.855 167.158 597.004 161.52C596.252 156.546 592.491 153.73 587.849 154.679C584.595 155.345 581.818 157.447 579.817 160.757L579.798 160.789C578.378 163.319 577.719 165.771 577.79 168.28C577.868 171.275 579.129 173.813 581.25 175.247L581.245 175.244ZM592.114 163.419C592.184 166.401 590.571 169.22 587.997 170.608C586.679 171.318 585.505 171.341 584.293 170.682C582.831 169.772 582.68 168.047 582.81 166.767C583.094 163.943 584.454 161.81 586.846 160.429C588.075 159.719 589.382 159.645 590.419 160.221L590.424 160.225C591.468 160.814 592.082 161.98 592.12 163.422L592.114 163.419Z" fill="#283618" fill-opacity="0.7"/>
<path d="M595.411 184.871C595.963 185.481 596.613 185.988 597.328 186.392C598.789 187.217 600.533 187.597 602.36 187.453C606.013 187.179 608.803 185.329 611.125 181.632L611.179 181.537L611.215 181.432C611.266 181.257 611.335 181.052 611.413 180.83C611.635 180.172 611.914 179.357 612.061 178.484C612.456 176.098 611.865 173.773 610.398 171.942C608.937 170.115 606.802 169.035 604.407 168.89C599.222 168.589 594.308 172.517 593.445 177.641C592.99 180.37 593.707 183 595.414 184.865L595.411 184.871ZM606.627 178.999C606.582 179.122 606.548 179.237 606.513 179.342C605.104 181.447 603.6 182.385 601.645 182.394C600.585 182.391 599.716 182.05 599.138 181.402C598.549 180.733 598.298 179.769 598.434 178.678C598.756 176.116 601.489 173.85 604.061 174.016C604.614 174.054 605.122 174.2 605.557 174.445C605.897 174.637 606.194 174.891 606.43 175.197C606.964 175.882 607.165 176.779 606.993 177.724C606.913 178.173 606.756 178.617 606.621 179.011L606.627 178.999Z" fill="#283618" fill-opacity="0.7"/>
<path d="M612.813 193.27C612.074 190.761 610.162 189.022 607.557 188.495C603.38 187.646 598.632 190.249 596.269 194.685C594.104 198.745 595.061 203.383 598.494 205.458L598.562 205.496L598.636 205.521C598.838 205.584 599.042 205.656 599.245 205.728C599.727 205.897 600.221 206.072 600.758 206.17C604.621 206.867 608.756 204.905 611.294 201.167C613 198.657 613.56 195.776 612.813 193.27ZM607.611 197.948C606.52 199.948 604.124 201.228 602.166 200.868C601.226 200.698 600.563 200.153 600.281 199.342C600.002 198.524 600.161 197.508 600.732 196.561C601.961 194.502 604.406 193.318 606.306 193.859C606.529 193.925 606.734 194.007 606.925 194.114C607.442 194.406 607.81 194.854 607.986 195.408C608.224 196.168 608.097 197.074 607.611 197.948Z" fill="#283618" fill-opacity="0.7"/>
<path d="M261.659 108.059C266.008 105.071 267.71 98.6854 265.377 94.1149C264.275 91.9582 262.376 90.5259 260.159 90.1969C257.92 89.8645 255.618 90.6283 253.68 92.3519C253.262 92.7283 252.886 93.1531 252.509 93.5779C252.354 93.7586 252.193 93.9361 252.032 94.1136L250.867 96.123L250.761 96.5409C249.514 99.7872 249.61 102.852 251.041 105.664C251.7 106.95 252.664 107.963 253.835 108.624C254.406 108.946 255.029 109.189 255.691 109.337C257.695 109.788 259.821 109.336 261.665 108.062L261.659 108.059ZM256.909 96.1702C257.588 95.6141 258.36 95.3788 259.087 95.5043C259.338 95.5452 259.573 95.6274 259.792 95.7511C260.207 95.9855 260.553 96.3567 260.804 96.842C261.602 98.3657 261.502 100.456 260.572 102.036L260.565 102.049C259.987 103.073 259.276 103.712 258.399 104.013C257.232 104.411 256.132 103.933 255.478 102.734C254.401 100.776 255.086 97.6487 256.909 96.1702Z" fill="#283618" fill-opacity="0.7"/>
<path d="M283.909 120.99C283.697 116.12 281.557 112.271 277.721 109.852C273.105 106.968 268.164 107.001 262.972 109.977C260.584 111.345 258.218 112.766 255.855 114.18L252.706 116.062C251.006 117.071 249.632 118.437 248.5 120.234L248.447 120.328L248.406 120.427C248.305 120.723 248.193 121.013 248.081 121.302C247.825 121.978 247.56 122.681 247.389 123.414C246.752 126.221 247.203 128.977 248.648 131.179C250.102 133.394 252.375 134.743 255.027 134.976C257.357 135.183 259.314 135.698 261.013 136.541C263.177 137.64 265.068 139.314 266.801 141.711C267.466 142.628 268.288 143.371 269.269 143.924C269.87 144.264 270.529 144.529 271.246 144.729C274.188 145.544 277.355 144.788 279.936 142.66C282.481 140.561 283.968 137.495 284.026 134.255C284.116 129.162 284.078 124.949 283.909 120.99ZM277.222 138.593C276.058 139.627 274.553 140.041 273.09 139.731C272.057 139.518 271.192 138.89 270.431 137.829C268.759 135.482 266.693 133.611 264.274 132.246C263.678 131.91 263.059 131.601 262.419 131.33C260.505 130.504 258.428 130.005 256.071 129.807C253.634 129.596 252.098 127.917 252.048 125.428C252.003 123.36 252.87 121.773 254.602 120.708C258.529 118.306 262.077 116.158 265.743 114.141C268.568 112.586 271.518 112.577 274.507 114.116C277.471 115.945 279.003 118.762 279.054 122.499C279.105 126.392 279.13 130.278 279.14 134.18C279.143 135.904 278.445 137.52 277.233 138.6L277.222 138.593Z" fill="#283618" fill-opacity="0.7"/>
<path d="M271.569 106.336C271.73 106.443 271.895 106.545 272.058 106.637C274.095 107.786 276.646 107.882 279.153 106.887C284.437 104.787 288.179 98.2492 287.328 92.6112C286.576 87.6376 282.816 84.8219 278.174 85.7703C274.919 86.4365 272.142 88.5388 270.141 91.8485L270.123 91.8806C268.703 94.4104 268.044 96.8627 268.115 99.3719C268.193 102.367 269.454 104.905 271.575 106.339L271.569 106.336ZM282.438 94.5104C282.509 97.4927 280.896 100.311 278.322 101.7C277.003 102.41 275.829 102.432 274.617 101.774C273.155 100.864 273.004 99.1382 273.135 97.8588C273.419 95.0345 274.778 92.9013 277.171 91.5204C278.4 90.8106 279.707 90.7366 280.743 91.3129L280.749 91.3161C281.793 91.9052 282.407 93.072 282.444 94.5136L282.438 94.5104Z" fill="#283618" fill-opacity="0.7"/>
<path d="M285.735 115.963C286.288 116.572 286.937 117.08 287.653 117.484C289.114 118.308 290.857 118.689 292.684 118.544C296.338 118.271 299.128 116.421 301.45 112.723L301.504 112.628L301.539 112.523C301.591 112.348 301.659 112.144 301.737 111.922C301.96 111.263 302.238 110.449 302.385 109.576C302.781 107.189 302.189 104.865 300.722 103.034C299.261 101.206 297.126 100.127 294.731 99.9817C289.546 99.6807 284.633 103.608 283.769 108.732C283.314 111.461 284.031 114.092 285.739 115.957L285.735 115.963ZM296.952 110.091C296.906 110.214 296.873 110.328 296.837 110.434C295.429 112.538 293.925 113.476 291.969 113.486C290.909 113.483 290.04 113.141 289.462 112.494C288.873 111.824 288.623 110.86 288.759 109.769C289.08 107.208 291.814 104.942 294.386 105.108C294.938 105.146 295.446 105.291 295.881 105.537C296.221 105.729 296.518 105.983 296.755 106.288C297.288 106.973 297.489 107.871 297.318 108.816C297.237 109.264 297.081 109.709 296.945 110.103L296.952 110.091Z" fill="#283618" fill-opacity="0.7"/>
<path d="M303.137 124.362C302.399 121.853 300.486 120.113 297.882 119.587C293.705 118.738 288.957 121.34 286.593 125.777C284.428 129.836 285.386 134.475 288.819 136.55L288.886 136.588L288.961 136.613C289.163 136.675 289.366 136.747 289.57 136.819C290.052 136.989 290.545 137.164 291.082 137.261C294.945 137.958 299.08 135.996 301.619 132.259C303.324 129.749 303.885 126.867 303.137 124.362ZM297.936 129.04C296.844 131.039 294.449 132.319 292.49 131.96C291.55 131.789 290.888 131.244 290.605 130.433C290.327 129.616 290.486 128.599 291.057 127.653C292.286 125.594 294.73 124.41 296.631 124.951C296.853 125.016 297.059 125.098 297.25 125.206C297.766 125.497 298.135 125.946 298.311 126.499C298.548 127.259 298.422 128.165 297.936 129.04Z" fill="#283618" fill-opacity="0.7"/>
<path d="M270.056 228.14C274.404 225.151 276.107 218.766 273.774 214.196C272.671 212.039 270.772 210.607 268.555 210.278C266.317 209.945 264.015 210.709 262.076 212.433C261.659 212.809 261.282 213.234 260.905 213.659C260.75 213.839 260.589 214.017 260.428 214.194L259.264 216.204L259.157 216.622C257.91 219.868 258.006 222.932 259.438 225.745C260.096 227.03 261.06 228.044 262.231 228.705C262.802 229.027 263.426 229.27 264.088 229.417C266.091 229.869 268.217 229.417 270.062 228.143L270.056 228.14ZM265.305 216.251C265.984 215.695 266.756 215.459 267.484 215.585C267.734 215.626 267.969 215.708 268.188 215.832C268.604 216.066 268.949 216.437 269.2 216.923C269.998 218.446 269.898 220.537 268.968 222.117L268.961 222.13C268.383 223.154 267.673 223.793 266.795 224.094C265.628 224.492 264.529 224.014 263.875 222.815C262.797 220.857 263.482 217.729 265.305 216.251Z" fill="#283618" fill-opacity="0.7"/>
<path d="M292.306 241.071C292.094 236.201 289.954 232.352 286.118 229.933C281.501 227.048 276.56 227.082 271.369 230.058C268.981 231.426 266.614 232.846 264.251 234.261L261.103 236.143C259.402 237.152 258.029 238.518 256.897 240.315L256.844 240.408L256.802 240.508C256.702 240.804 256.59 241.093 256.478 241.383C256.221 242.059 255.956 242.762 255.786 243.494C255.149 246.302 255.599 249.058 257.045 251.26C258.498 253.475 260.771 254.823 263.424 255.057C265.753 255.264 267.711 255.778 269.409 256.622C271.574 257.721 273.464 259.395 275.197 261.792C275.862 262.709 276.685 263.452 277.665 264.005C278.267 264.345 278.925 264.61 279.643 264.81C282.584 265.625 285.751 264.869 288.333 262.741C290.877 260.641 292.365 257.576 292.423 254.336C292.513 249.243 292.474 245.029 292.306 241.071ZM285.618 258.674C284.455 259.707 282.95 260.121 281.486 259.812C280.453 259.598 279.588 258.971 278.828 257.91C277.155 255.563 275.089 253.692 272.671 252.327C272.075 251.99 271.455 251.682 270.815 251.411C268.901 250.585 266.825 250.085 264.468 249.887C262.03 249.677 260.495 247.998 260.445 245.509C260.4 243.441 261.266 241.854 262.998 240.789C266.925 238.387 270.474 236.239 274.139 234.222C276.964 232.666 279.915 232.658 282.903 234.197C285.867 236.026 287.4 238.843 287.451 242.58C287.502 246.472 287.527 250.359 287.536 254.26C287.54 255.985 286.841 257.601 285.629 258.68L285.618 258.674Z" fill="#283618" fill-opacity="0.7"/>
<path d="M279.966 226.416C280.127 226.524 280.291 226.626 280.454 226.717C282.491 227.867 285.042 227.962 287.55 226.968C292.834 224.868 296.576 218.33 295.725 212.692C294.973 207.718 291.212 204.903 286.57 205.851C283.316 206.517 280.539 208.619 278.537 211.929L278.519 211.961C277.099 214.491 276.44 216.943 276.511 219.453C276.589 222.448 277.85 224.986 279.971 226.419L279.966 226.416ZM290.835 214.591C290.905 217.573 289.292 220.392 286.718 221.78C285.4 222.491 284.226 222.513 283.014 221.854C281.552 220.944 281.401 219.219 281.531 217.939C281.815 215.115 283.175 212.982 285.567 211.601C286.796 210.891 288.103 210.817 289.14 211.394L289.145 211.397C290.189 211.986 290.803 213.153 290.841 214.594L290.835 214.591Z" fill="#283618" fill-opacity="0.7"/>
<path d="M294.132 236.043C294.684 236.653 295.334 237.16 296.049 237.564C297.51 238.389 299.254 238.769 301.081 238.625C304.734 238.351 307.524 236.501 309.846 232.804L309.9 232.709L309.936 232.604C309.987 232.429 310.056 232.225 310.134 232.002C310.356 231.344 310.635 230.53 310.782 229.656C311.177 227.27 310.586 224.946 309.119 223.115C307.658 221.287 305.523 220.207 303.128 220.062C297.943 219.761 293.029 223.689 292.166 228.813C291.711 231.542 292.428 234.172 294.135 236.037L294.132 236.043ZM305.348 230.171C305.303 230.294 305.269 230.409 305.234 230.514C303.825 232.619 302.321 233.557 300.366 233.566C299.306 233.564 298.437 233.222 297.859 232.575C297.27 231.905 297.019 230.941 297.155 229.85C297.477 227.288 300.21 225.022 302.782 225.189C303.335 225.226 303.843 225.372 304.278 225.617C304.618 225.809 304.915 226.063 305.151 226.369C305.685 227.054 305.886 227.951 305.714 228.897C305.634 229.345 305.477 229.79 305.342 230.183L305.348 230.171Z" fill="#283618" fill-opacity="0.7"/>
<path d="M311.534 244.442C310.795 241.934 308.883 240.194 306.278 239.667C302.101 238.819 297.353 241.421 294.99 245.857C292.825 249.917 293.782 254.556 297.215 256.631L297.283 256.669L297.357 256.694C297.559 256.756 297.763 256.828 297.966 256.9C298.448 257.069 298.942 257.245 299.479 257.342C303.342 258.039 307.477 256.077 310.015 252.34C311.721 249.83 312.281 246.948 311.534 244.442ZM306.332 249.121C305.241 251.12 302.845 252.4 300.887 252.041C299.947 251.87 299.284 251.325 299.002 250.514C298.723 249.696 298.882 248.68 299.453 247.733C300.682 245.674 303.127 244.491 305.027 245.032C305.25 245.097 305.455 245.179 305.646 245.287C306.163 245.578 306.531 246.026 306.707 246.58C306.945 247.34 306.818 248.246 306.332 249.121Z" fill="#283618" fill-opacity="0.7"/>
<path d="M130.479 197.326C134.827 194.337 136.53 187.952 134.196 183.382C133.094 181.225 131.195 179.793 128.978 179.464C126.74 179.131 124.438 179.895 122.499 181.619C122.081 181.995 121.705 182.42 121.328 182.844C121.173 183.025 121.012 183.203 120.851 183.38L119.686 185.39L119.58 185.808C118.333 189.054 118.429 192.118 119.861 194.931C120.519 196.216 121.483 197.23 122.654 197.891C123.225 198.213 123.848 198.456 124.511 198.603C126.514 199.055 128.64 198.603 130.485 197.329L130.479 197.326ZM125.728 185.437C126.407 184.881 127.179 184.645 127.906 184.771C128.157 184.812 128.392 184.894 128.611 185.018C129.027 185.252 129.372 185.623 129.623 186.109C130.421 187.632 130.321 189.723 129.391 191.303L129.384 191.316C128.806 192.34 128.096 192.978 127.218 193.28C126.051 193.678 124.952 193.2 124.298 192.001C123.22 190.042 123.905 186.915 125.728 185.437Z" fill="#283618" fill-opacity="0.7"/>
<path d="M152.729 210.257C152.516 205.387 150.377 201.538 146.541 199.119C141.924 196.234 136.983 196.268 131.792 199.244C129.404 200.612 127.037 202.032 124.674 203.447L121.526 205.329C119.825 206.337 118.451 207.703 117.319 209.501L117.267 209.594L117.225 209.694C117.124 209.99 117.012 210.279 116.9 210.569C116.644 211.244 116.379 211.948 116.208 212.68C115.572 215.487 116.022 218.244 117.468 220.446C118.921 222.661 121.194 224.009 123.847 224.243C126.176 224.45 128.134 224.964 129.832 225.808C131.996 226.906 133.887 228.581 135.62 230.978C136.285 231.895 137.107 232.638 138.088 233.191C138.69 233.531 139.348 233.796 140.066 233.995C143.007 234.811 146.174 234.055 148.756 231.927C151.3 229.827 152.787 226.762 152.846 223.522C152.936 218.429 152.897 214.215 152.729 210.257ZM146.041 227.86C144.877 228.893 143.373 229.307 141.909 228.998C140.876 228.784 140.011 228.157 139.251 227.096C137.578 224.749 135.512 222.877 133.094 221.513C132.498 221.176 131.878 220.868 131.238 220.597C129.324 219.771 127.247 219.271 124.891 219.073C122.453 218.863 120.918 217.184 120.868 214.695C120.823 212.627 121.689 211.04 123.421 209.975C127.348 207.573 130.897 205.425 134.562 203.408C137.387 201.852 140.337 201.844 143.326 203.383C146.29 205.212 147.822 208.029 147.873 211.766C147.924 215.658 147.95 219.544 147.959 223.446C147.963 225.171 147.264 226.787 146.052 227.866L146.041 227.86Z" fill="#283618" fill-opacity="0.7"/>
<path d="M140.388 195.602C140.55 195.71 140.714 195.811 140.877 195.903C142.914 197.053 145.465 197.148 147.972 196.154C153.257 194.054 156.998 187.516 156.148 181.878C155.396 176.904 151.635 174.089 146.993 175.037C143.739 175.703 140.961 177.805 138.96 181.115L138.942 181.147C137.522 183.677 136.863 186.129 136.934 188.639C137.012 191.634 138.273 194.172 140.394 195.605L140.388 195.602ZM151.258 183.777C151.328 186.759 149.715 189.578 147.141 190.966C145.823 191.677 144.649 191.699 143.437 191.04C141.975 190.13 141.824 188.405 141.954 187.125C142.238 184.301 143.597 182.168 145.99 180.787C147.219 180.077 148.526 180.003 149.562 180.58L149.568 180.583C150.612 181.172 151.226 182.339 151.263 183.78L151.258 183.777Z" fill="#283618" fill-opacity="0.7"/>
<path d="M154.555 205.229C155.107 205.839 155.756 206.346 156.472 206.75C157.933 207.575 159.676 207.955 161.503 207.811C165.157 207.537 167.947 205.687 170.269 201.99L170.323 201.895L170.359 201.79C170.41 201.615 170.478 201.411 170.557 201.188C170.779 200.53 171.058 199.716 171.204 198.842C171.6 196.456 171.009 194.132 169.542 192.3C168.081 190.473 165.946 189.393 163.55 189.248C158.365 188.947 153.452 192.875 152.589 197.999C152.133 200.728 152.851 203.358 154.558 205.223L154.555 205.229ZM165.771 199.357C165.725 199.48 165.692 199.595 165.656 199.7C164.248 201.805 162.744 202.743 160.789 202.752C159.729 202.75 158.86 202.408 158.282 201.761C157.692 201.091 157.442 200.127 157.578 199.036C157.9 196.474 160.633 194.208 163.205 194.375C163.758 194.412 164.265 194.558 164.701 194.803C165.041 194.995 165.338 195.249 165.574 195.555C166.107 196.24 166.309 197.137 166.137 198.083C166.057 198.531 165.9 198.976 165.764 199.369L165.771 199.357Z" fill="#283618" fill-opacity="0.7"/>
<path d="M171.957 213.628C171.218 211.12 169.306 209.38 166.701 208.853C162.524 208.005 157.776 210.607 155.413 215.043C153.247 219.103 154.205 223.742 157.638 225.817L157.706 225.855L157.78 225.88C157.982 225.942 158.186 226.014 158.389 226.086C158.871 226.255 159.364 226.431 159.902 226.528C163.765 227.225 167.9 225.263 170.438 221.526C172.144 219.016 172.704 216.134 171.957 213.628ZM166.755 218.306C165.664 220.306 163.268 221.586 161.309 221.226C160.369 221.056 159.707 220.511 159.425 219.7C159.146 218.882 159.305 217.866 159.876 216.919C161.105 214.86 163.55 213.677 165.45 214.218C165.672 214.283 165.878 214.365 166.069 214.472C166.585 214.764 166.954 215.212 167.13 215.766C167.368 216.526 167.241 217.432 166.755 218.306Z" fill="#283618" fill-opacity="0.7"/>
<path d="M152.904 350.832C157.253 347.844 158.955 341.459 156.622 336.888C155.52 334.731 153.621 333.299 151.404 332.97C149.165 332.638 146.863 333.401 144.925 335.125C144.507 335.501 144.13 335.926 143.754 336.351C143.599 336.532 143.438 336.709 143.277 336.887L142.112 338.896L142.006 339.314C140.759 342.56 140.855 345.625 142.286 348.437C142.945 349.723 143.909 350.737 145.08 351.397C145.651 351.72 146.274 351.962 146.936 352.11C148.94 352.561 151.066 352.109 152.91 350.835L152.904 350.832ZM148.154 338.943C148.833 338.387 149.604 338.152 150.332 338.277C150.583 338.318 150.818 338.401 151.037 338.524C151.452 338.759 151.798 339.13 152.049 339.615C152.847 341.139 152.747 343.229 151.817 344.809L151.81 344.822C151.232 345.846 150.521 346.485 149.644 346.787C148.476 347.184 147.377 346.706 146.723 345.507C145.646 343.549 146.331 340.422 148.154 338.943Z" fill="#283618" fill-opacity="0.7"/>
<path d="M175.154 363.763C174.942 358.894 172.802 355.044 168.966 352.625C164.35 349.741 159.409 349.774 154.217 352.751C151.829 354.118 149.463 355.539 147.1 356.953L143.951 358.835C142.25 359.844 140.877 361.21 139.745 363.008L139.692 363.101L139.651 363.2C139.55 363.496 139.438 363.786 139.326 364.075C139.07 364.751 138.805 365.455 138.634 366.187C137.997 368.994 138.447 371.75 139.893 373.952C141.347 376.167 143.62 377.516 146.272 377.749C148.602 377.957 150.559 378.471 152.258 379.315C154.422 380.413 156.313 382.087 158.046 384.484C158.711 385.401 159.533 386.144 160.514 386.698C161.115 387.037 161.774 387.302 162.491 387.502C165.433 388.317 168.599 387.561 171.181 385.434C173.726 383.334 175.213 380.269 175.271 377.028C175.361 371.936 175.323 367.722 175.154 363.763ZM168.467 381.367C167.303 382.4 165.798 382.814 164.335 382.505C163.302 382.291 162.437 381.663 161.676 380.602C160.003 378.256 157.937 376.384 155.519 375.019C154.923 374.683 154.304 374.374 153.664 374.103C151.749 373.277 149.673 372.778 147.316 372.58C144.879 372.369 143.343 370.69 143.293 368.201C143.248 366.133 144.114 364.547 145.847 363.482C149.774 361.079 153.322 358.931 156.988 356.915C159.813 355.359 162.763 355.351 165.751 356.889C168.716 358.718 170.248 361.535 170.299 365.272C170.35 369.165 170.375 373.051 170.385 376.953C170.388 378.678 169.689 380.293 168.478 381.373L168.467 381.367Z" fill="#283618" fill-opacity="0.7"/>
<path d="M162.814 349.109C162.975 349.217 163.14 349.318 163.303 349.41C165.34 350.56 167.891 350.655 170.398 349.66C175.682 347.561 179.424 341.022 178.573 335.384C177.821 330.411 174.061 327.595 169.419 328.544C166.164 329.21 163.387 331.312 161.386 334.622L161.368 334.654C159.947 337.184 159.289 339.636 159.36 342.145C159.438 345.14 160.699 347.678 162.82 349.112L162.814 349.109ZM173.683 337.284C173.754 340.266 172.141 343.085 169.567 344.473C168.248 345.183 167.074 345.205 165.862 344.547C164.4 343.637 164.249 341.911 164.38 340.632C164.664 337.808 166.023 335.675 168.416 334.294C169.645 333.584 170.952 333.51 171.988 334.086L171.994 334.089C173.038 334.678 173.652 335.845 173.689 337.287L173.683 337.284Z" fill="#283618" fill-opacity="0.7"/>
<path d="M176.98 358.736C177.533 359.345 178.182 359.853 178.898 360.257C180.359 361.081 182.102 361.462 183.929 361.317C187.583 361.044 190.372 359.194 192.695 355.497L192.749 355.402L192.784 355.296C192.836 355.122 192.904 354.917 192.982 354.695C193.204 354.037 193.483 353.222 193.63 352.349C194.026 349.962 193.434 347.638 191.967 345.807C190.506 343.979 188.371 342.9 185.976 342.755C180.791 342.454 175.877 346.381 175.014 351.505C174.559 354.235 175.276 356.865 176.984 358.73L176.98 358.736ZM188.197 352.864C188.151 352.987 188.118 353.101 188.082 353.207C186.674 355.312 185.17 356.249 183.214 356.259C182.154 356.256 181.285 355.915 180.707 355.267C180.118 354.598 179.868 353.633 180.004 352.543C180.325 349.981 183.059 347.715 185.631 347.881C186.183 347.919 186.691 348.064 187.126 348.31C187.466 348.502 187.763 348.756 188 349.061C188.533 349.746 188.734 350.644 188.562 351.589C188.482 352.038 188.326 352.482 188.19 352.876L188.197 352.864Z" fill="#283618" fill-opacity="0.7"/>
<path d="M194.382 367.135C193.644 364.626 191.731 362.886 189.127 362.36C184.95 361.511 180.202 364.113 177.838 368.55C175.673 372.609 176.63 377.248 180.064 379.323L180.131 379.361L180.206 379.386C180.408 379.449 180.611 379.521 180.815 379.593C181.297 379.762 181.79 379.937 182.327 380.035C186.19 380.732 190.325 378.77 192.864 375.032C194.569 372.522 195.13 369.64 194.382 367.135ZM189.181 371.813C188.089 373.812 185.694 375.093 183.735 374.733C182.795 374.563 182.133 374.017 181.85 373.206C181.572 372.389 181.731 371.372 182.302 370.426C183.53 368.367 185.975 367.183 187.876 367.724C188.098 367.79 188.304 367.871 188.495 367.979C189.011 368.271 189.38 368.719 189.556 369.273C189.793 370.032 189.667 370.939 189.181 371.813Z" fill="#283618" fill-opacity="0.7"/>
<path d="M785.95 178.609C790.298 175.62 792.001 169.235 789.667 164.665C788.565 162.508 786.666 161.076 784.449 160.747C782.211 160.414 779.909 161.178 777.97 162.902C777.552 163.278 777.176 163.703 776.799 164.128C776.644 164.308 776.483 164.486 776.322 164.663L775.157 166.673L775.051 167.091C773.804 170.337 773.9 173.401 775.332 176.214C775.99 177.5 776.954 178.513 778.125 179.174C778.696 179.496 779.319 179.739 779.982 179.886C781.985 180.338 784.111 179.886 785.956 178.612L785.95 178.609ZM781.199 166.72C781.878 166.164 782.65 165.929 783.378 166.054C783.628 166.095 783.863 166.177 784.082 166.301C784.498 166.535 784.843 166.907 785.094 167.392C785.892 168.916 785.792 171.006 784.862 172.586L784.855 172.599C784.277 173.623 783.567 174.262 782.689 174.563C781.522 174.961 780.423 174.483 779.769 173.284C778.691 171.326 779.376 168.199 781.199 166.72Z" fill="#283618" fill-opacity="0.7"/>
<path d="M808.2 191.54C807.987 186.67 805.848 182.821 802.012 180.402C797.395 177.517 792.454 177.551 787.263 180.527C784.875 181.895 782.508 183.315 780.145 184.73L776.997 186.612C775.296 187.621 773.922 188.987 772.79 190.784L772.738 190.878L772.696 190.977C772.595 191.273 772.483 191.562 772.371 191.852C772.115 192.528 771.85 193.231 771.679 193.963C771.043 196.771 771.493 199.527 772.939 201.729C774.392 203.944 776.665 205.292 779.318 205.526C781.647 205.733 783.605 206.248 785.303 207.091C787.467 208.19 789.358 209.864 791.091 212.261C791.756 213.178 792.578 213.921 793.559 214.474C794.161 214.814 794.819 215.079 795.537 215.279C798.478 216.094 801.645 215.338 804.227 213.21C806.771 211.111 808.258 208.045 808.317 204.805C808.407 199.712 808.368 195.498 808.2 191.54ZM801.512 209.143C800.348 210.176 798.844 210.591 797.38 210.281C796.347 210.068 795.482 209.44 794.722 208.379C793.049 206.032 790.983 204.161 788.565 202.796C787.969 202.459 787.349 202.151 786.709 201.88C784.795 201.054 782.718 200.555 780.362 200.357C777.924 200.146 776.389 198.467 776.339 195.978C776.294 193.91 777.16 192.323 778.892 191.258C782.819 188.856 786.368 186.708 790.033 184.691C792.858 183.135 795.808 183.127 798.797 184.666C801.761 186.495 803.293 189.312 803.344 193.049C803.395 196.941 803.421 200.828 803.43 204.729C803.434 206.454 802.735 208.07 801.523 209.15L801.512 209.143Z" fill="#283618" fill-opacity="0.7"/>
<path d="M795.859 176.885C796.021 176.993 796.185 177.095 796.348 177.187C798.385 178.336 800.936 178.431 803.443 177.437C808.728 175.337 812.469 168.799 811.619 163.161C810.867 158.187 807.106 155.372 802.464 156.32C799.21 156.986 796.432 159.089 794.431 162.398L794.413 162.43C792.993 164.96 792.334 167.413 792.405 169.922C792.483 172.917 793.744 175.455 795.865 176.889L795.859 176.885ZM806.729 165.06C806.799 168.043 805.186 170.861 802.612 172.249C801.294 172.96 800.12 172.982 798.908 172.323C797.446 171.414 797.295 169.688 797.425 168.409C797.709 165.584 799.068 163.451 801.461 162.07C802.69 161.36 803.997 161.286 805.034 161.863L805.039 161.866C806.083 162.455 806.697 163.622 806.734 165.063L806.729 165.06Z" fill="#283618" fill-opacity="0.7"/>
<path d="M810.026 186.512C810.578 187.122 811.227 187.63 811.943 188.033C813.404 188.858 815.147 189.238 816.974 189.094C820.628 188.821 823.418 186.97 825.74 183.273L825.794 183.178L825.83 183.073C825.881 182.898 825.949 182.694 826.028 182.472C826.25 181.813 826.529 180.999 826.675 180.126C827.071 177.739 826.48 175.415 825.013 173.584C823.552 171.756 821.417 170.676 819.021 170.531C813.836 170.231 808.923 174.158 808.06 179.282C807.605 182.011 808.322 184.642 810.029 186.507L810.026 186.512ZM821.242 180.641C821.196 180.764 821.163 180.878 821.127 180.983C819.719 183.088 818.215 184.026 816.26 184.035C815.2 184.033 814.331 183.691 813.753 183.044C813.163 182.374 812.913 181.41 813.049 180.319C813.371 177.758 816.104 175.492 818.676 175.658C819.229 175.695 819.736 175.841 820.172 176.087C820.512 176.278 820.809 176.532 821.045 176.838C821.578 177.523 821.78 178.42 821.608 179.366C821.528 179.814 821.371 180.259 821.235 180.652L821.242 180.641Z" fill="#283618" fill-opacity="0.7"/>
<path d="M827.428 194.912C826.689 192.403 824.777 190.663 822.172 190.136C817.995 189.288 813.247 191.89 810.884 196.326C808.718 200.386 809.676 205.025 813.109 207.1L813.177 207.138L813.251 207.163C813.453 207.225 813.657 207.297 813.86 207.369C814.342 207.538 814.835 207.714 815.373 207.811C819.236 208.508 823.371 206.546 825.909 202.809C827.615 200.299 828.175 197.417 827.428 194.912ZM822.226 199.59C821.135 201.589 818.739 202.869 816.781 202.51C815.84 202.339 815.178 201.794 814.896 200.983C814.617 200.165 814.776 199.149 815.347 198.203C816.576 196.144 819.021 194.96 820.921 195.501C821.143 195.566 821.349 195.648 821.54 195.756C822.056 196.047 822.425 196.495 822.601 197.049C822.839 197.809 822.712 198.715 822.226 199.59Z" fill="#283618" fill-opacity="0.7"/>
<path d="M874.216 37.9916C878.564 35.0032 880.267 28.618 877.934 24.0475C876.831 21.8908 874.932 20.4585 872.715 20.1295C870.477 19.7971 868.175 20.5609 866.236 22.2845C865.819 22.6609 865.442 23.0857 865.065 23.5105C864.91 23.6912 864.749 23.8687 864.588 24.0462L863.424 26.0557L863.317 26.4735C862.07 29.7198 862.166 32.7843 863.598 35.5966C864.256 36.8823 865.22 37.896 866.391 38.5568C866.962 38.879 867.586 39.1218 868.248 39.2691C870.251 39.7207 872.377 39.2685 874.222 37.9949L874.216 37.9916ZM869.465 26.1028C870.144 25.5467 870.916 25.3114 871.644 25.4369C871.894 25.4778 872.129 25.56 872.348 25.6837C872.764 25.9181 873.109 26.2893 873.36 26.7746C874.158 28.2984 874.058 30.3888 873.128 31.9689L873.121 31.9816C872.543 33.0056 871.833 33.6445 870.955 33.946C869.788 34.3437 868.689 33.8659 868.035 32.6666C866.957 30.7084 867.642 27.5813 869.465 26.1028Z" fill="#283618" fill-opacity="0.7"/>
<path d="M896.466 50.9226C896.254 46.053 894.114 42.2038 890.278 39.7846C885.661 36.9002 880.72 36.9336 875.529 39.91C873.141 41.2776 870.774 42.6983 868.411 44.1127L865.263 45.9945C863.562 47.0035 862.189 48.3694 861.057 50.167L861.004 50.2603L860.962 50.3599C860.862 50.6557 860.75 50.9453 860.638 51.2348C860.381 51.9104 860.116 52.6141 859.945 53.3462C859.309 56.1534 859.759 58.9095 861.205 61.1118C862.658 63.3267 864.931 64.6752 867.584 64.9088C869.913 65.1161 871.871 65.6303 873.569 66.474C875.734 67.5725 877.624 69.2467 879.357 71.6437C880.022 72.5606 880.845 73.3036 881.825 73.857C882.427 74.1966 883.085 74.4617 883.803 74.6614C886.744 75.4765 889.911 74.7207 892.493 72.5931C895.037 70.4933 896.525 67.428 896.583 64.1878C896.673 59.095 896.634 54.8812 896.466 50.9226ZM889.778 68.526C888.615 69.5593 887.11 69.9734 885.646 69.6641C884.613 69.4504 883.748 68.8226 882.988 67.7618C881.315 65.4149 879.249 63.5434 876.831 62.1787C876.235 61.8422 875.615 61.5337 874.975 61.2626C873.061 60.4366 870.985 59.9374 868.628 59.7394C866.19 59.5286 864.655 57.8498 864.605 55.3607C864.56 53.2926 865.426 51.706 867.158 50.641C871.085 48.2389 874.634 46.0907 878.299 44.074C881.124 42.5182 884.075 42.51 887.063 44.0489C890.027 45.8777 891.56 48.6949 891.61 52.4316C891.662 56.3242 891.687 60.2105 891.696 64.1122C891.7 65.837 891.001 67.4525 889.789 68.5323L889.778 68.526Z" fill="#283618" fill-opacity="0.7"/>
<path d="M884.126 36.2682C884.287 36.376 884.451 36.4775 884.614 36.5693C886.651 37.719 889.202 37.8142 891.71 36.8195C896.994 34.72 900.736 28.1818 899.885 22.5438C899.133 17.5703 895.372 14.7545 890.73 15.7029C887.476 16.3691 884.699 18.4714 882.697 21.7811L882.679 21.8132C881.259 24.343 880.6 26.7953 880.671 29.3045C880.749 32.2996 882.01 34.8376 884.131 36.2714L884.126 36.2682ZM894.995 24.443C895.065 27.4253 893.452 30.2439 890.878 31.6322C889.56 32.3425 888.386 32.3647 887.174 31.7061C885.712 30.7964 885.561 29.0708 885.691 27.7914C885.975 24.9671 887.335 22.834 889.727 21.453C890.956 20.7432 892.263 20.6692 893.3 21.2455L893.305 21.2487C894.349 21.8378 894.963 23.0046 895 24.4462L894.995 24.443Z" fill="#283618" fill-opacity="0.7"/>
<path d="M898.292 45.8952C898.844 46.5048 899.494 47.0123 900.209 47.4162C901.67 48.2408 903.414 48.6212 905.241 48.4768C908.894 48.2033 911.684 46.3531 914.006 42.656L914.06 42.5609L914.096 42.4557C914.147 42.281 914.216 42.0766 914.294 41.8543C914.516 41.196 914.795 40.3815 914.942 39.5083C915.337 37.1218 914.746 34.7975 913.279 32.9664C911.818 31.1387 909.683 30.0591 907.288 29.9143C902.103 29.6133 897.189 33.5408 896.326 38.6649C895.871 41.3939 896.588 44.0244 898.295 45.8893L898.292 45.8952ZM909.508 40.0234C909.463 40.1464 909.429 40.2609 909.394 40.3661C907.985 42.4711 906.481 43.4089 904.526 43.4182C903.466 43.4155 902.597 43.0741 902.019 42.4265C901.43 41.7569 901.179 40.7929 901.315 39.702C901.637 37.1404 904.37 34.8744 906.942 35.0406C907.495 35.0782 908.003 35.2237 908.438 35.4694C908.778 35.6612 909.075 35.9151 909.311 36.2209C909.845 36.9059 910.046 37.8032 909.874 38.7485C909.794 39.197 909.637 39.6416 909.502 40.0353L909.508 40.0234Z" fill="#283618" fill-opacity="0.7"/>
<path d="M915.694 54.2943C914.955 51.7856 913.043 50.0459 910.438 49.5191C906.261 48.6706 901.513 51.2726 899.15 55.7092C896.985 59.7688 897.942 64.4076 901.375 66.4825L901.443 66.5205L901.517 66.5456C901.719 66.6079 901.923 66.68 902.126 66.752C902.608 66.9212 903.102 67.0966 903.639 67.194C907.502 67.891 911.637 65.929 914.175 62.1916C915.881 59.6815 916.441 56.7997 915.694 54.2943ZM910.492 58.9725C909.401 60.9717 907.005 62.2519 905.047 61.8925C904.106 61.722 903.444 61.1768 903.162 60.3658C902.883 59.5482 903.042 58.5319 903.613 57.5853C904.842 55.5264 907.287 54.3425 909.187 54.8836C909.41 54.949 909.615 55.0307 909.806 55.1384C910.323 55.4299 910.691 55.8782 910.867 56.432C911.105 57.1918 910.978 58.0979 910.492 58.9725Z" fill="#283618" fill-opacity="0.7"/>
<path d="M1001.82 155.962C1006.17 152.973 1007.88 146.588 1005.54 142.017C1004.44 139.861 1002.54 138.428 1000.32 138.099C998.086 137.767 995.784 138.531 993.845 140.254C993.428 140.631 993.051 141.056 992.674 141.48C992.519 141.661 992.358 141.839 992.197 142.016L991.032 144.026L990.926 144.443C989.679 147.69 989.775 150.754 991.207 153.566C991.865 154.852 992.829 155.866 994 156.527C994.571 156.849 995.194 157.092 995.857 157.239C997.86 157.691 999.986 157.238 1001.83 155.965L1001.82 155.962ZM997.074 144.073C997.753 143.517 998.525 143.281 999.253 143.407C999.503 143.448 999.738 143.53 999.957 143.654C1000.37 143.888 1000.72 144.259 1000.97 144.745C1001.77 146.268 1001.67 148.359 1000.74 149.939L1000.73 149.951C1000.15 150.975 999.442 151.614 998.564 151.916C997.397 152.314 996.298 151.836 995.644 150.637C994.566 148.678 995.251 145.551 997.074 144.073Z" fill="#283618" fill-opacity="0.7"/>
<path d="M1024.07 168.892C1023.86 164.023 1021.72 160.174 1017.89 157.754C1013.27 154.87 1008.33 154.903 1003.14 157.88C1000.75 159.247 998.383 160.668 996.02 162.083L992.872 163.964C991.171 164.973 989.798 166.339 988.666 168.137L988.613 168.23L988.571 168.33C988.471 168.626 988.359 168.915 988.247 169.205C987.99 169.88 987.725 170.584 987.554 171.316C986.918 174.123 987.368 176.879 988.814 179.082C990.267 181.297 992.54 182.645 995.193 182.879C997.522 183.086 999.48 183.6 1001.18 184.444C1003.34 185.542 1005.23 187.217 1006.97 189.614C1007.63 190.53 1008.45 191.273 1009.43 191.827C1010.04 192.167 1010.69 192.432 1011.41 192.631C1014.35 193.446 1017.52 192.691 1020.1 190.563C1022.65 188.463 1024.13 185.398 1024.19 182.158C1024.28 177.065 1024.24 172.851 1024.07 168.892ZM1017.39 186.496C1016.22 187.529 1014.72 187.943 1013.26 187.634C1012.22 187.42 1011.36 186.792 1010.6 185.732C1008.92 183.385 1006.86 181.513 1004.44 180.149C1003.84 179.812 1003.22 179.504 1002.58 179.232C1000.67 178.406 998.593 177.907 996.237 177.709C993.799 177.498 992.264 175.82 992.214 173.331C992.169 171.263 993.035 169.676 994.767 168.611C998.694 166.209 1002.24 164.061 1005.91 162.044C1008.73 160.488 1011.68 160.48 1014.67 162.019C1017.64 163.848 1019.17 166.665 1019.22 170.401C1019.27 174.294 1019.3 178.18 1019.3 182.082C1019.31 183.807 1018.61 185.422 1017.4 186.502L1017.39 186.496Z" fill="#283618" fill-opacity="0.7"/>
<path d="M1011.73 154.238C1011.9 154.346 1012.06 154.447 1012.22 154.539C1014.26 155.689 1016.81 155.784 1019.32 154.789C1024.6 152.69 1028.34 146.152 1027.49 140.514C1026.74 135.54 1022.98 132.724 1018.34 133.673C1015.08 134.339 1012.31 136.441 1010.31 139.751L1010.29 139.783C1008.87 142.313 1008.21 144.765 1008.28 147.274C1008.36 150.269 1009.62 152.807 1011.74 154.241L1011.73 154.238ZM1022.6 142.413C1022.67 145.395 1021.06 148.214 1018.49 149.602C1017.17 150.312 1015.99 150.335 1014.78 149.676C1013.32 148.766 1013.17 147.041 1013.3 145.761C1013.58 142.937 1014.94 140.804 1017.34 139.423C1018.57 138.713 1019.87 138.639 1020.91 139.215L1020.91 139.219C1021.96 139.808 1022.57 140.974 1022.61 142.416L1022.6 142.413Z" fill="#283618" fill-opacity="0.7"/>
<path d="M1025.9 163.865C1026.45 164.475 1027.1 164.982 1027.82 165.386C1029.28 166.211 1031.02 166.591 1032.85 166.447C1036.5 166.173 1039.29 164.323 1041.62 160.626L1041.67 160.531L1041.7 160.426C1041.76 160.251 1041.82 160.046 1041.9 159.824C1042.12 159.166 1042.4 158.351 1042.55 157.478C1042.95 155.092 1042.35 152.767 1040.89 150.936C1039.43 149.109 1037.29 148.029 1034.9 147.884C1029.71 147.583 1024.8 151.511 1023.93 156.635C1023.48 159.364 1024.2 161.994 1025.9 163.859L1025.9 163.865ZM1037.12 157.993C1037.07 158.116 1037.04 158.231 1037 158.336C1035.59 160.441 1034.09 161.379 1032.13 161.388C1031.07 161.385 1030.21 161.044 1029.63 160.396C1029.04 159.727 1028.79 158.763 1028.92 157.672C1029.25 155.11 1031.98 152.844 1034.55 153.01C1035.1 153.048 1035.61 153.194 1036.05 153.439C1036.39 153.631 1036.68 153.885 1036.92 154.191C1037.45 154.876 1037.65 155.773 1037.48 156.718C1037.4 157.167 1037.25 157.612 1037.11 158.005L1037.12 157.993Z" fill="#283618" fill-opacity="0.7"/>
<path d="M1043.3 172.264C1042.56 169.755 1040.65 168.016 1038.05 167.489C1033.87 166.64 1029.12 169.243 1026.76 173.679C1024.59 177.739 1025.55 182.378 1028.98 184.452L1029.05 184.49L1029.13 184.515C1029.33 184.578 1029.53 184.65 1029.74 184.722C1030.22 184.891 1030.71 185.066 1031.25 185.164C1035.11 185.861 1039.25 183.899 1041.78 180.161C1043.49 177.651 1044.05 174.77 1043.3 172.264ZM1038.1 176.942C1037.01 178.942 1034.61 180.222 1032.66 179.862C1031.72 179.692 1031.05 179.147 1030.77 178.336C1030.49 177.518 1030.65 176.502 1031.22 175.555C1032.45 173.496 1034.9 172.312 1036.8 172.853C1037.02 172.919 1037.22 173.001 1037.41 173.108C1037.93 173.4 1038.3 173.848 1038.48 174.402C1038.71 175.162 1038.59 176.068 1038.1 176.942Z" fill="#283618" fill-opacity="0.7"/>
<path d="M1058.26 22.7882C1062.61 19.7997 1064.31 13.4145 1061.98 8.84401C1060.87 6.68731 1058.98 5.25501 1056.76 4.92601C1054.52 4.5936 1052.22 5.35743 1050.28 7.08103C1049.86 7.45743 1049.48 7.8822 1049.11 8.30698C1048.95 8.48772 1048.79 8.6652 1048.63 8.84268L1047.47 10.8522L1047.36 11.27C1046.11 14.5163 1046.21 17.5808 1047.64 20.3931C1048.3 21.6788 1049.26 22.6925 1050.43 23.3533C1051.01 23.6755 1051.63 23.9184 1052.29 24.0656C1054.29 24.5172 1056.42 24.065 1058.26 22.7914L1058.26 22.7882ZM1053.51 10.8993C1054.19 10.3433 1054.96 10.1079 1055.69 10.2334C1055.94 10.2743 1056.17 10.3566 1056.39 10.4803C1056.81 10.7146 1057.15 11.0858 1057.4 11.5712C1058.2 13.0949 1058.1 15.1853 1057.17 16.7654L1057.16 16.7781C1056.59 17.8021 1055.88 18.441 1055 18.7425C1053.83 19.1402 1052.73 18.6624 1052.08 17.4631C1051 15.505 1051.69 12.3778 1053.51 10.8993Z" fill="#283618" fill-opacity="0.7"/>
<path d="M1080.51 35.7191C1080.3 30.8495 1078.16 27.0003 1074.32 24.5811C1069.7 21.6967 1064.76 21.7301 1059.57 24.7065C1057.18 26.0741 1054.82 27.4948 1052.45 28.9092L1049.31 30.791C1047.6 31.8 1046.23 33.166 1045.1 34.9635L1045.05 35.0568L1045.01 35.1564C1044.9 35.4522 1044.79 35.7418 1044.68 36.0313C1044.42 36.7069 1044.16 37.4106 1043.99 38.1427C1043.35 40.9499 1043.8 43.706 1045.25 45.9084C1046.7 48.1232 1048.97 49.4717 1051.63 49.7054C1053.96 49.9126 1055.91 50.4268 1057.61 51.2705C1059.78 52.369 1061.67 54.0432 1063.4 56.4402C1064.07 57.3571 1064.89 58.1001 1065.87 58.6535C1066.47 58.9931 1067.13 59.2582 1067.85 59.458C1070.79 60.2731 1073.95 59.5173 1076.54 57.3896C1079.08 55.2898 1080.57 52.2245 1080.63 48.9843C1080.72 43.8915 1080.68 39.6777 1080.51 35.7191ZM1073.82 53.3225C1072.66 54.3558 1071.15 54.7699 1069.69 54.4606C1068.66 54.2469 1067.79 53.6191 1067.03 52.5583C1065.36 50.2115 1063.29 48.34 1060.87 46.9752C1060.28 46.6388 1059.66 46.3303 1059.02 46.0591C1057.1 45.2331 1055.03 44.7339 1052.67 44.5359C1050.23 44.3251 1048.7 42.6463 1048.65 40.1572C1048.6 38.0891 1049.47 36.5025 1051.2 35.4376C1055.13 33.0354 1058.68 30.8872 1062.34 28.8705C1065.17 27.3147 1068.12 27.3065 1071.11 28.8454C1074.07 30.6742 1075.6 33.4914 1075.65 37.2281C1075.7 41.1207 1075.73 45.007 1075.74 48.9088C1075.74 50.6335 1075.04 52.249 1073.83 53.3288L1073.82 53.3225Z" fill="#283618" fill-opacity="0.7"/>
<path d="M1068.17 21.0647C1068.33 21.1726 1068.49 21.274 1068.66 21.3658C1070.69 22.5155 1073.25 22.6107 1075.75 21.6161C1081.04 19.5165 1084.78 12.9783 1083.93 7.34034C1083.18 2.36678 1079.41 -0.448966 1074.77 0.499473C1071.52 1.16564 1068.74 3.26789 1066.74 6.57764L1066.72 6.60971C1065.3 9.13955 1064.64 11.5918 1064.71 14.101C1064.79 17.0961 1066.05 19.6341 1068.17 21.0679L1068.17 21.0647ZM1079.04 9.23956C1079.11 12.2219 1077.5 15.0405 1074.92 16.4287C1073.6 17.139 1072.43 17.1612 1071.22 16.5027C1069.75 15.5929 1069.6 13.8674 1069.73 12.5879C1070.02 9.76358 1071.38 7.63047 1073.77 6.24956C1075 5.53975 1076.31 5.4657 1077.34 6.04206L1077.35 6.04523C1078.39 6.63433 1079.01 7.80113 1079.04 9.24273L1079.04 9.23956Z" fill="#283618" fill-opacity="0.7"/>
<path d="M1082.33 30.6917C1082.89 31.3013 1083.54 31.8088 1084.25 32.2127C1085.71 33.0373 1087.46 33.4177 1089.28 33.2734C1092.94 32.9999 1095.73 31.1497 1098.05 27.4526L1098.1 27.3575L1098.14 27.2523C1098.19 27.0775 1098.26 26.8731 1098.34 26.6508C1098.56 25.9925 1098.84 25.1781 1098.98 24.3048C1099.38 21.9183 1098.79 19.5941 1097.32 17.763C1095.86 15.9352 1093.73 14.8557 1091.33 14.7108C1086.15 14.4099 1081.23 18.3373 1080.37 23.4614C1079.91 26.1905 1080.63 28.8209 1082.34 30.6858L1082.33 30.6917ZM1093.55 24.8199C1093.51 24.9429 1093.47 25.0574 1093.44 25.1626C1092.03 27.2676 1090.52 28.2054 1088.57 28.2147C1087.51 28.2121 1086.64 27.8706 1086.06 27.223C1085.47 26.5535 1085.22 25.5894 1085.36 24.4985C1085.68 21.9369 1088.41 19.6709 1090.98 19.8371C1091.54 19.8748 1092.05 20.0202 1092.48 20.2659C1092.82 20.4578 1093.12 20.7116 1093.35 21.0174C1093.89 21.7024 1094.09 22.5997 1093.92 23.5451C1093.84 23.9936 1093.68 24.4382 1093.54 24.8318L1093.55 24.8199Z" fill="#283618" fill-opacity="0.7"/>
<path d="M1099.74 39.0908C1099 36.5821 1097.09 34.8424 1094.48 34.3157C1090.3 33.4671 1085.56 36.0692 1083.19 40.5057C1081.03 44.5653 1081.98 49.2041 1085.42 51.279L1085.49 51.3171L1085.56 51.3421C1085.76 51.4044 1085.97 51.4765 1086.17 51.5485C1086.65 51.7177 1087.14 51.8931 1087.68 51.9905C1091.54 52.6875 1095.68 50.7255 1098.22 46.9881C1099.92 44.4781 1100.48 41.5962 1099.74 39.0908ZM1094.54 43.769C1093.44 45.7682 1091.05 47.0484 1089.09 46.689C1088.15 46.5185 1087.49 45.9733 1087.2 45.1623C1086.93 44.3447 1087.09 43.3284 1087.66 42.3818C1088.88 40.3229 1091.33 39.139 1093.23 39.6801C1093.45 39.7455 1093.66 39.8272 1093.85 39.9349C1094.37 40.2265 1094.73 40.6747 1094.91 41.2285C1095.15 41.9883 1095.02 42.8944 1094.54 43.769Z" fill="#283618" fill-opacity="0.7"/>
<path d="M1190.17 70.1666C1194.51 67.1782 1196.22 60.793 1193.88 56.2225C1192.78 54.0658 1190.88 52.6335 1188.66 52.3045C1186.43 51.9721 1184.12 52.7359 1182.19 54.4595C1181.77 54.8359 1181.39 55.2607 1181.02 55.6855C1180.86 55.8662 1180.7 56.0437 1180.54 56.2212L1179.37 58.2307L1179.27 58.6485C1178.02 61.8948 1178.12 64.9593 1179.55 67.7716C1180.21 69.0573 1181.17 70.071 1182.34 70.7318C1182.91 71.054 1183.54 71.2968 1184.2 71.4441C1186.2 71.8957 1188.33 71.4435 1190.17 70.1699L1190.17 70.1666ZM1185.42 58.2778C1186.09 57.7217 1186.87 57.4864 1187.59 57.6119C1187.84 57.6528 1188.08 57.735 1188.3 57.8587C1188.71 58.0931 1189.06 58.4643 1189.31 58.9496C1190.11 60.4734 1190.01 62.5638 1189.08 64.1439L1189.07 64.1566C1188.49 65.1806 1187.78 65.8195 1186.91 66.121C1185.74 66.5187 1184.64 66.0409 1183.98 64.8416C1182.91 62.8834 1183.59 59.7563 1185.42 58.2778Z" fill="#283618" fill-opacity="0.7"/>
<path d="M1212.42 83.0975C1212.2 78.228 1210.06 74.3788 1206.23 71.9595C1201.61 69.0751 1196.67 69.1085 1191.48 72.085C1189.09 73.4526 1186.72 74.8733 1184.36 76.2877L1181.21 78.1695C1179.51 79.1784 1178.14 80.5444 1177.01 82.342L1176.95 82.4353L1176.91 82.5349C1176.81 82.8307 1176.7 83.1203 1176.59 83.4098C1176.33 84.0854 1176.07 84.7891 1175.9 85.5212C1175.26 88.3284 1175.71 91.0845 1177.15 93.2868C1178.61 95.5017 1180.88 96.8502 1183.53 97.0838C1185.86 97.2911 1187.82 97.8053 1189.52 98.649C1191.68 99.7475 1193.57 101.422 1195.31 103.819C1195.97 104.736 1196.79 105.479 1197.78 106.032C1198.38 106.372 1199.04 106.637 1199.75 106.836C1202.69 107.652 1205.86 106.896 1208.44 104.768C1210.99 102.668 1212.47 99.603 1212.53 96.3628C1212.62 91.27 1212.58 87.0562 1212.42 83.0975ZM1205.73 100.701C1204.56 101.734 1203.06 102.148 1201.6 101.839C1200.56 101.625 1199.7 100.998 1198.94 99.9368C1197.26 97.5899 1195.2 95.7184 1192.78 94.3537C1192.18 94.0172 1191.57 93.7087 1190.92 93.4376C1189.01 92.6116 1186.93 92.1124 1184.58 91.9144C1182.14 91.7036 1180.6 90.0248 1180.55 87.5357C1180.51 85.4676 1181.38 83.881 1183.11 82.816C1187.04 80.4139 1190.58 78.2657 1194.25 76.249C1197.07 74.6932 1200.02 74.685 1203.01 76.2239C1205.98 78.0527 1207.51 80.8699 1207.56 84.6066C1207.61 88.4992 1207.64 92.3855 1207.65 96.2872C1207.65 98.012 1206.95 99.6275 1205.74 100.707L1205.73 100.701Z" fill="#283618" fill-opacity="0.7"/>
<path d="M1200.08 68.4432C1200.24 68.551 1200.4 68.6525 1200.56 68.7443C1202.6 69.894 1205.15 69.9892 1207.66 68.9945C1212.94 66.895 1216.69 60.3568 1215.83 54.7188C1215.08 49.7453 1211.32 46.9295 1206.68 47.8779C1203.43 48.5441 1200.65 50.6464 1198.65 53.9561L1198.63 53.9882C1197.21 56.518 1196.55 58.9703 1196.62 61.4795C1196.7 64.4745 1197.96 67.0126 1200.08 68.4464L1200.08 68.4432ZM1210.94 56.618C1211.02 59.6003 1209.4 62.4189 1206.83 63.8072C1205.51 64.5175 1204.34 64.5397 1203.12 63.8811C1201.66 62.9714 1201.51 61.2458 1201.64 59.9664C1201.93 57.1421 1203.28 55.0089 1205.68 53.628C1206.91 52.9182 1208.21 52.8442 1209.25 53.4205L1209.26 53.4237C1210.3 54.0128 1210.91 55.1796 1210.95 56.6212L1210.94 56.618Z" fill="#283618" fill-opacity="0.7"/>
<path d="M1214.24 78.0702C1214.79 78.6798 1215.44 79.1873 1216.16 79.5912C1217.62 80.4158 1219.36 80.7962 1221.19 80.6518C1224.84 80.3783 1227.63 78.5281 1229.96 74.831L1230.01 74.7359L1230.05 74.6308C1230.1 74.456 1230.17 74.2516 1230.24 74.0293C1230.47 73.371 1230.74 72.5565 1230.89 71.6833C1231.29 69.2968 1230.7 66.9725 1229.23 65.1414C1227.77 63.3137 1225.63 62.2341 1223.24 62.0893C1218.05 61.7883 1213.14 65.7158 1212.28 70.8399C1211.82 73.5689 1212.54 76.1994 1214.25 78.0643L1214.24 78.0702ZM1225.46 72.1984C1225.41 72.3214 1225.38 72.4359 1225.34 72.5411C1223.94 74.6461 1222.43 75.5839 1220.48 75.5932C1219.42 75.5905 1218.55 75.2491 1217.97 74.6015C1217.38 73.9319 1217.13 72.9679 1217.27 71.877C1217.59 69.3154 1220.32 67.0494 1222.89 67.2156C1223.44 67.2532 1223.95 67.3987 1224.39 67.6444C1224.73 67.8362 1225.02 68.0901 1225.26 68.3959C1225.79 69.0809 1226 69.9782 1225.82 70.9236C1225.74 71.3721 1225.59 71.8166 1225.45 72.2103L1225.46 72.1984Z" fill="#283618" fill-opacity="0.7"/>
<path d="M1231.64 86.4693C1230.91 83.9606 1228.99 82.2209 1226.39 81.6941C1222.21 80.8456 1217.46 83.4476 1215.1 87.8842C1212.93 91.9438 1213.89 96.5826 1217.33 98.6575L1217.39 98.6955L1217.47 98.7206C1217.67 98.7829 1217.87 98.855 1218.08 98.927C1218.56 99.0962 1219.05 99.2716 1219.59 99.369C1223.45 100.066 1227.59 98.104 1230.13 94.3666C1231.83 91.8565 1232.39 88.9747 1231.64 86.4693ZM1226.44 91.1475C1225.35 93.1467 1222.96 94.4269 1221 94.0675C1220.06 93.897 1219.39 93.3518 1219.11 92.5407C1218.83 91.7232 1218.99 90.7069 1219.56 89.7603C1220.79 87.7014 1223.24 86.5175 1225.14 87.0586C1225.36 87.124 1225.56 87.2057 1225.76 87.3134C1226.27 87.6049 1226.64 88.0532 1226.82 88.607C1227.05 89.3668 1226.93 90.2729 1226.44 91.1475Z" fill="#283618" fill-opacity="0.7"/>
<path d="M661.039 70.8299C665.387 67.8415 667.089 61.4563 664.756 56.8858C663.654 54.7291 661.755 53.2968 659.538 52.9678C657.299 52.6354 654.998 53.3992 653.059 55.1228C652.641 55.4992 652.265 55.924 651.888 56.3487C651.733 56.5295 651.572 56.707 651.411 56.8844L650.246 58.8939L650.14 59.3118C648.893 62.558 648.989 65.6225 650.421 68.4349C651.079 69.7206 652.043 70.7342 653.214 71.395C653.785 71.7173 654.408 71.9601 655.07 72.1074C657.074 72.559 659.2 72.1068 661.044 70.8332L661.039 70.8299ZM656.288 58.9411C656.967 58.385 657.739 58.1496 658.466 58.2752C658.717 58.316 658.952 58.3983 659.171 58.522C659.586 58.7564 659.932 59.1276 660.183 59.6129C660.981 61.1366 660.881 63.227 659.951 64.8071L659.944 64.8199C659.366 65.8438 658.656 66.4828 657.778 66.7842C656.611 67.182 655.512 66.7042 654.858 65.5049C653.78 63.5467 654.465 60.4196 656.288 58.9411Z" fill="#283618" fill-opacity="0.7"/>
<path d="M683.289 83.7608C683.076 78.8913 680.936 75.042 677.101 72.6228C672.484 69.7384 667.543 69.7718 662.352 72.7483C659.964 74.1159 657.597 75.5365 655.234 76.951L652.086 78.8328C650.385 79.8417 649.011 81.2077 647.879 83.0052L647.827 83.0986L647.785 83.1982C647.684 83.494 647.572 83.7835 647.46 84.0731C647.204 84.7487 646.939 85.4524 646.768 86.1845C646.132 88.9917 646.582 91.7478 648.028 93.9501C649.481 96.165 651.754 97.5135 654.406 97.7471C656.736 97.9543 658.694 98.4686 660.392 99.3123C662.556 100.411 664.447 102.085 666.18 104.482C666.845 105.399 667.667 106.142 668.648 106.695C669.25 107.035 669.908 107.3 670.626 107.5C673.567 108.315 676.734 107.559 679.316 105.431C681.86 103.332 683.347 100.266 683.406 97.026C683.496 91.9333 683.457 87.7195 683.289 83.7608ZM676.601 101.364C675.437 102.398 673.933 102.812 672.469 102.502C671.436 102.289 670.571 101.661 669.811 100.6C668.138 98.2532 666.072 96.3817 663.654 95.017C663.058 94.6805 662.438 94.372 661.798 94.1008C659.884 93.2749 657.807 92.7757 655.451 92.5777C653.013 92.3668 651.477 90.688 651.428 88.1989C651.383 86.1309 652.249 84.5442 653.981 83.4793C657.908 81.0771 661.457 78.929 665.122 76.9123C667.947 75.3565 670.897 75.3483 673.886 76.8872C676.85 78.716 678.382 81.5332 678.433 85.2699C678.484 89.1625 678.51 93.0487 678.519 96.9505C678.522 98.6753 677.824 100.291 676.612 101.371L676.601 101.364Z" fill="#283618" fill-opacity="0.7"/>
<path d="M670.948 69.1065C671.109 69.2143 671.274 69.3158 671.437 69.4076C673.474 70.5573 676.025 70.6525 678.532 69.6578C683.816 67.5583 687.558 61.0201 686.708 55.3821C685.956 50.4085 682.195 47.5928 677.553 48.5412C674.299 49.2074 671.521 51.3096 669.52 54.6194L669.502 54.6515C668.082 57.1813 667.423 59.6336 667.494 62.1428C667.572 65.1378 668.833 67.6759 670.954 69.1096L670.948 69.1065ZM681.818 57.2813C681.888 60.2636 680.275 63.0822 677.701 64.4705C676.383 65.1808 675.208 65.203 673.997 64.5444C672.534 63.6346 672.384 61.9091 672.514 60.6297C672.798 57.8053 674.157 55.6722 676.55 54.2913C677.779 53.5815 679.086 53.5075 680.122 54.0838L680.128 54.087C681.172 54.6761 681.786 55.8429 681.823 57.2845L681.818 57.2813Z" fill="#283618" fill-opacity="0.7"/>
<path d="M685.115 78.7335C685.667 79.3431 686.316 79.8506 687.032 80.2545C688.493 81.0791 690.236 81.4595 692.063 81.3151C695.717 81.0416 698.507 79.1914 700.829 75.4943L700.883 75.3992L700.919 75.294C700.97 75.1193 701.038 74.9149 701.117 74.6926C701.339 74.0342 701.617 73.2198 701.764 72.3466C702.16 69.9601 701.569 67.6358 700.102 65.8047C698.641 63.977 696.506 62.8974 694.11 62.7526C688.925 62.4516 684.012 66.3791 683.148 71.5032C682.693 74.2322 683.411 76.8626 685.118 78.7276L685.115 78.7335ZM696.331 72.8617C696.285 72.9847 696.252 73.0992 696.216 73.2044C694.808 75.3093 693.304 76.2472 691.349 76.2565C690.288 76.2538 689.42 75.9124 688.842 75.2648C688.252 74.5952 688.002 73.6312 688.138 72.5403C688.459 69.9786 691.193 67.7126 693.765 67.8789C694.318 67.9165 694.825 68.062 695.261 68.3077C695.601 68.4995 695.898 68.7534 696.134 69.0592C696.667 69.7442 696.869 70.6415 696.697 71.5868C696.617 72.0353 696.46 72.4799 696.324 72.8736L696.331 72.8617Z" fill="#283618" fill-opacity="0.7"/>
<path d="M702.516 87.1326C701.778 84.6238 699.866 82.8842 697.261 82.3574C693.084 81.5089 688.336 84.1109 685.973 88.5475C683.807 92.6071 684.765 97.2459 688.198 99.3208L688.266 99.3588L688.34 99.3838C688.542 99.4462 688.745 99.5183 688.949 99.5903C689.431 99.7594 689.924 99.9349 690.461 100.032C694.325 100.729 698.46 98.7673 700.998 95.0299C702.704 92.5198 703.264 89.638 702.516 87.1326ZM697.315 91.8108C696.224 93.81 693.828 95.0902 691.869 94.7307C690.929 94.5602 690.267 94.0151 689.985 93.204C689.706 92.3865 689.865 91.3702 690.436 90.4236C691.665 88.3647 694.11 87.1808 696.01 87.7219C696.232 87.7873 696.438 87.869 696.629 87.9767C697.145 88.2682 697.514 88.7165 697.69 89.2702C697.928 90.0301 697.801 90.9362 697.315 91.8108Z" fill="#283618" fill-opacity="0.7"/>
</svg>
