<svg width="158" height="35" viewBox="0 0 158 35" fill="none" xmlns="http://www.w3.org/2000/svg">
<path d="M133.405 32.0563L135.533 22.1263L128.396 15.4475L137.824 14.564L141.491 5.19946L145.158 14.564L154.587 15.4475L147.45 22.1263L149.578 32.0563L141.491 26.7909L133.405 32.0563Z" fill="#1D1B20"/>
<path d="M101.975 32.0563L104.103 22.1263L96.9664 15.4475L106.395 14.564L110.062 5.19946L113.729 14.564L123.157 15.4475L116.02 22.1263L118.148 32.0563L110.062 26.7909L101.975 32.0563Z" fill="#1D1B20"/>
<path d="M70.5463 32.0563L72.6743 22.1263L65.5372 15.4475L74.966 14.564L78.6327 5.19946L82.2995 14.564L91.7282 15.4475L84.5912 22.1263L86.7192 32.0563L78.6327 26.7909L70.5463 32.0563Z" fill="#1D1B20"/>
<path d="M39.1171 32.0563L41.2451 22.1263L34.108 15.4475L43.5368 14.564L47.2035 5.19946L50.8703 14.564L60.299 15.4475L53.162 22.1263L55.29 32.0563L47.2035 26.7909L39.1171 32.0563Z" fill="#1D1B20"/>
<path d="M7.68792 32.0563L9.81593 22.1263L2.67889 15.4475L12.1076 14.564L15.7744 5.19946L19.4411 14.564L28.8699 15.4475L21.7328 22.1263L23.8608 32.0563L15.7744 26.7909L7.68792 32.0563Z" fill="#1D1B20"/>
</svg>
