<svg width="84" height="81" viewBox="0 0 84 81" fill="none" xmlns="http://www.w3.org/2000/svg">
<path d="M27.7064 33.6709C32.1264 30.666 33.875 24.2715 31.5247 19.7063C30.4144 17.5521 28.4936 16.1255 26.246 15.8038C23.9773 15.4788 21.6403 16.2509 19.6684 17.9821C19.2435 18.3601 18.8601 18.7864 18.4767 19.2127C18.3186 19.394 18.1547 19.5722 17.9908 19.7503L16.8029 21.7649L16.6934 22.1833C15.418 25.4356 15.5044 28.5015 16.9467 31.3106C17.61 32.5947 18.5841 33.6057 19.7692 34.2629C20.3471 34.5834 20.9785 34.8243 21.6495 34.9694C23.68 35.4144 25.8375 34.9548 27.7122 33.6741L27.7064 33.6709ZM22.93 21.7915C23.6203 21.2328 24.4037 20.9947 25.1412 21.1178C25.3953 21.1579 25.6332 21.2394 25.8551 21.3624C26.2754 21.5955 26.6246 21.9657 26.8773 22.4505C27.6812 23.9724 27.5726 26.0643 26.6242 27.6484L26.6169 27.6612C26.0273 28.6877 25.3046 29.3294 24.4138 29.634C23.2285 30.036 22.1155 29.5616 21.4564 28.3639C20.3706 26.4083 21.0761 23.2771 22.93 21.7915Z" fill="#283618" fill-opacity="0.7"/>
<path d="M50.3333 46.5524C50.1347 41.6779 47.9766 37.8315 44.0925 35.4225C39.4179 32.5505 34.404 32.6007 29.1258 35.5983C26.6979 36.9755 24.2915 38.4059 21.8887 39.83L18.6874 41.7247C16.9581 42.7406 15.5598 44.1128 14.4048 45.9163L14.3511 46.0099L14.3086 46.1097C14.2052 46.4063 14.0906 46.6965 13.976 46.9868C13.7134 47.664 13.4422 48.3694 13.2664 49.103C12.6106 51.9156 13.0579 54.6733 14.5174 56.8733C15.9846 59.0858 18.2864 60.4282 20.9771 60.6531C23.3401 60.8526 25.3249 61.3608 27.0454 62.1997C29.2379 63.2921 31.1508 64.9618 32.9007 67.3557C33.5726 68.2714 34.4044 69.0125 35.3975 69.5632C36.0069 69.9012 36.6743 70.1643 37.4015 70.3619C40.3834 71.1679 43.5995 70.4005 46.2268 68.2616C48.8157 66.1507 50.3358 63.0768 50.4061 59.8326C50.515 54.7337 50.4902 50.5151 50.3333 46.5524ZM43.486 64.199C42.3018 65.2374 40.7735 65.6571 39.2893 65.3525C38.2421 65.142 37.3663 64.5165 36.5983 63.457C34.909 61.1131 32.819 59.2465 30.37 57.8884C29.7662 57.5535 29.1389 57.2468 28.49 56.9774C26.5506 56.157 24.4453 55.6643 22.0546 55.4741C19.5818 55.2713 18.0294 53.5958 17.9875 51.1039C17.949 49.0337 18.8333 47.4422 20.5949 46.3702C24.588 43.9519 28.1963 41.7891 31.9226 39.7577C34.7945 38.1905 37.7885 38.1722 40.8156 39.7027C43.8172 41.5236 45.3623 44.3389 45.4011 48.0797C45.4395 51.9767 45.4517 55.8673 45.4475 59.7736C45.4453 61.5004 44.7307 63.1201 43.4973 64.2053L43.486 64.199Z" fill="#283618" fill-opacity="0.7"/>
<path d="M37.7776 31.9803C37.9406 32.0877 38.1072 32.1886 38.272 32.2799C40.3336 33.4232 42.9197 33.5098 45.4656 32.5061C50.8309 30.3878 54.6477 23.834 53.8046 18.1964C53.0591 13.2232 49.2557 10.419 44.5456 11.3836C41.2435 12.0611 38.4201 14.1737 36.3795 17.4917L36.3611 17.5239C34.9121 20.0596 34.2355 22.5153 34.299 25.0253C34.3678 28.0214 35.6376 30.5563 37.7832 31.9835L37.7776 31.9803ZM48.8397 20.1131C48.9009 23.0964 47.2556 25.9217 44.6407 27.3194C43.3014 28.0344 42.1107 28.0606 40.8842 27.4059C39.4048 26.5007 39.2578 24.7749 39.3942 23.4945C39.6922 20.6679 41.0779 18.5293 43.5085 17.1396C44.7575 16.4253 46.0831 16.3468 47.1318 16.9199L47.1374 16.9231C48.1938 17.5089 48.8125 18.6741 48.8454 20.1162L48.8397 20.1131Z" fill="#283618" fill-opacity="0.7"/>
<path d="M52.1722 41.611C52.7303 42.2191 53.3872 42.7248 54.1116 43.1266C55.5908 43.9468 57.3576 44.3216 59.2114 44.1709C62.9181 43.8848 65.7542 42.0238 68.1227 38.3161L68.1774 38.2208L68.2141 38.1154C68.2669 37.9403 68.3368 37.7355 68.4169 37.5128C68.6445 36.8532 68.9301 36.0373 69.0821 35.1629C69.4914 32.7733 68.8999 30.4494 67.4182 28.6219C65.9425 26.7978 63.7807 25.7247 61.3518 25.5879C56.0937 25.3043 51.0961 29.2513 50.2029 34.3821C49.7318 37.1147 50.4501 39.7446 52.1756 41.6051L52.1722 41.611ZM63.5693 35.6968C63.5224 35.8201 63.4884 35.9348 63.4517 36.0402C62.0161 38.1514 60.4871 39.0951 58.5037 39.111C57.4285 39.112 56.5485 38.7732 55.9643 38.1271C55.3689 37.4591 55.1186 36.4952 55.2604 35.403C55.5951 32.8384 58.3756 30.5615 60.9836 30.7191C61.5442 30.7549 62.0586 30.8987 62.4993 31.1431C62.8434 31.334 63.1439 31.587 63.3825 31.8922C63.9211 32.5759 64.1222 33.4732 63.9446 34.4198C63.8618 34.8689 63.7015 35.3143 63.5625 35.7087L63.5693 35.6968Z" fill="#283618" fill-opacity="0.7"/>
<path d="M69.8597 49.9473C69.1197 47.4397 67.1861 45.7056 64.5466 45.1873C60.3133 44.3525 55.4893 46.9721 53.0774 51.4192C50.8675 55.4885 51.8224 60.1266 55.297 62.191L55.3652 62.2288L55.4409 62.2536C55.6452 62.3153 55.8515 62.3867 56.0577 62.4581C56.5459 62.6257 57.0454 62.7996 57.5899 62.8952C61.5052 63.5795 65.7053 61.6024 68.2927 57.8542C70.0308 55.337 70.6092 52.4516 69.8597 49.9473ZM64.5686 54.6458C63.4549 56.6498 61.0212 57.9389 59.0361 57.5859C58.0832 57.4185 57.4137 56.8753 57.13 56.0647C56.8501 55.2476 57.0149 54.2302 57.5974 53.2812C58.8505 51.217 61.3339 50.0241 63.2595 50.559C63.4846 50.6237 63.6928 50.7048 63.886 50.8119C64.4088 51.1018 64.7813 51.5491 64.9579 52.1026C65.196 52.8621 65.0646 53.7691 64.5686 54.6458Z" fill="#283618" fill-opacity="0.7"/>
</svg>
